<?xml version="1.0" encoding="UTF-8"?>
<svg version="1.1" xmlns="http://www.w3.org/2000/svg" width="514" height="360">
<path d="M0 0 C169.62 0 339.24 0 514 0 C514 118.8 514 237.6 514 360 C344.38 360 174.76 360 0 360 C0 241.2 0 122.4 0 0 Z " fill="#171111" transform="translate(0,0)"/>
<path d="M0 0 C2.1875 -0.5 2.1875 -0.5 5 0 C9.67862815 5.59558367 12.59060903 12.98756944 15.75390625 19.49609375 C16.56624977 21.15476219 16.56624977 21.15476219 17.39500427 22.84693909 C19.12158213 26.37514858 20.84202774 29.90630992 22.5625 33.4375 C23.69037637 35.74302391 24.81862861 38.04836398 25.94726562 40.35351562 C31.53200462 51.77107174 37.07970821 63.20640901 42.58984375 74.66015625 C43.32020592 76.17578407 43.32020592 76.17578407 44.06532288 77.72203064 C46.53014048 82.85781737 48.90437388 88.00009552 51.0645752 93.27236938 C51.96334177 95.2700205 51.96334177 95.2700205 54.56640625 96.61328125 C55.55511719 96.84402344 56.54382813 97.07476562 57.5625 97.3125 C59.26792969 97.73208984 59.26792969 97.73208984 61.0078125 98.16015625 C62.33831563 98.4411765 63.66906475 98.72103348 65 99 C66.62277686 99.37203984 68.24515355 99.74582818 69.8671875 100.12109375 C73.14526155 100.85784932 76.42439049 101.58610846 79.71484375 102.265625 C80.73759399 102.47880371 80.73759399 102.47880371 81.78100586 102.69628906 C84.535497 103.0732928 87.22351792 103.04664272 90 103 C96.86601043 88.88575724 103.6887229 74.75908733 110.25 60.5 C115.54260744 49.01185996 121.02143235 37.62015695 126.5625 26.25 C126.95417358 25.44618896 127.34584717 24.64237793 127.74938965 23.81420898 C128.87489703 21.50585861 130.00149722 19.19804714 131.12890625 16.890625 C131.46070389 16.21151062 131.79250153 15.53239624 132.13435364 14.83270264 C133.08677033 12.88707827 134.04277579 10.94326312 135 9 C135.36124969 8.26293823 135.72249939 7.52587646 136.09469604 6.76647949 C136.45266266 6.04142212 136.81062927 5.31636475 137.17944336 4.56933594 C137.50416122 3.90963806 137.82887909 3.24994019 138.16343689 2.57025146 C139 1 139 1 140 0 C141.66617115 -0.04063832 143.33388095 -0.042721 145 0 C146.47540043 2.69969441 147.30785457 4.95363331 147.69848633 8.0012207 C147.80250259 8.78286591 147.90651886 9.56451111 148.01368713 10.36984253 C148.11874069 11.21330231 148.22379425 12.05676208 148.33203125 12.92578125 C148.44888779 13.81339142 148.56574432 14.70100159 148.68614197 15.61550903 C148.93693479 17.52266119 149.1847234 19.43021034 149.42980957 21.33810425 C150.07330915 26.33959442 150.74095593 31.33783024 151.41015625 36.3359375 C151.61008682 37.83195747 151.61008682 37.83195747 151.8140564 39.35820007 C153.30790786 50.43995584 155.08581867 61.46641122 156.921875 72.49609375 C157.67207385 77.00744296 158.41907298 81.51912672 159.140625 86.03515625 C159.30594727 87.06133057 159.47126953 88.08750488 159.64160156 89.14477539 C159.97507983 91.80147041 160.06750585 94.32646169 160 97 C174.74548019 90.13846684 187.64595815 81.56540953 200 71 C201.22785225 69.97758607 202.45676113 68.9564373 203.6875 67.9375 C204.8321875 66.9784375 204.8321875 66.9784375 206 66 C203.48117801 71.97264171 198.21174014 76.13511723 193.6875 80.625 C193.18757538 81.12276947 192.68765076 81.62053894 192.1725769 82.13339233 C184.87604091 89.37925692 177.60753695 96.2946211 169 102 C168.42266113 102.38397949 167.84532227 102.76795898 167.25048828 103.16357422 C158.33491245 109.01345988 149.14229046 113.6500604 139 117 C138.23284668 117.26852783 137.46569336 117.53705566 136.67529297 117.8137207 C128.37572266 120.43582487 120.23184933 120.5122721 111.625 120.4375 C110.49600784 120.43243942 110.49600784 120.43243942 109.34420776 120.42727661 C96.81998076 120.34613686 85.15219532 119.14453266 73 116 C70.73962845 115.43862039 68.47920866 114.87743499 66.21875 114.31640625 C57.16247953 112.03342142 48.14789027 109.62970744 39.17578125 107.03515625 C32.20157126 105.03148914 25.18969492 103.20434803 18.15087891 101.44506836 C16.13180688 100.93920541 14.1147478 100.42580449 12.09765625 99.91210938 C2.78689296 97.56487649 -6.55026941 95.70160648 -16 94 C-17.77190604 93.65123973 -19.54304925 93.29851075 -21.3125 92.9375 C-26.52754973 91.88027527 -31.76203214 90.9360627 -37 90 C-36.505 89.01 -36.505 89.01 -36 88 C-28.42998688 86.15031354 -20.7563686 85.74795248 -13 86 C-13.03222656 84.73542969 -13.06445312 83.47085938 -13.09765625 82.16796875 C-13.09031934 76.77114835 -12.31984125 71.62697609 -11.4375 66.3125 C-11.07295593 64.04447345 -10.70979666 61.77622409 -10.34765625 59.5078125 C-10.13898926 58.20618164 -9.93032227 56.90455078 -9.71533203 55.56347656 C-8.85533577 50.12856842 -8.05304379 44.68517556 -7.24609375 39.2421875 C-6.77857157 36.10545109 -6.31059957 32.96878203 -5.84255981 29.8321228 C-5.53151147 27.74013438 -5.22231956 25.64786907 -4.91500854 23.55532837 C-4.4776268 20.58158693 -4.03255776 17.60908473 -3.5859375 14.63671875 C-3.45581772 13.7387558 -3.32569794 12.84079285 -3.19163513 11.9156189 C-2.54940441 7.68731399 -1.8526081 3.9025265 0 0 Z " fill="#F4D885" transform="translate(186,89)"/>
<path d="M0 0 C0 3.87031676 -1.01624981 4.40195889 -3.69921875 7.09765625 C-4.49094482 7.89453857 -5.2826709 8.6914209 -6.09838867 9.51245117 C-6.95279541 10.35396729 -7.80720215 11.1954834 -8.6875 12.0625 C-9.54641846 12.92141846 -10.40533691 13.78033691 -11.2902832 14.6652832 C-17.08724342 20.37568125 -22.98061847 25.31011023 -29.82421875 29.69921875 C-32.31495215 31.88879001 -32.31495215 31.88879001 -32.4765625 35.36328125 C-32.02770951 41.78987024 -30.80112549 48.16286471 -29.6875 54.5 C-29.47416016 55.78003906 -29.26082031 57.06007812 -29.04101562 58.37890625 C-27.47143919 70.10945906 -27.47143919 70.10945906 -21.0625 79.4375 C-16.43005071 81.80099454 -12.43193544 82.19976452 -7.25 82.5625 C-5.49429688 82.68818359 -5.49429688 82.68818359 -3.703125 82.81640625 C-2.81109375 82.87699219 -1.9190625 82.93757813 -1 83 C-1 84.32 -1 85.64 -1 87 C-2.70000961 88.70000961 -4.87075144 88.13013576 -7.1953125 88.1328125 C-8.84200928 88.13595459 -8.84200928 88.13595459 -10.52197266 88.13916016 C-11.71097168 88.1344873 -12.8999707 88.12981445 -14.125 88.125 C-15.33591309 88.12161621 -16.54682617 88.11823242 -17.79443359 88.11474609 C-25.74248322 88.07008829 -33.68257944 87.92951438 -41.625 87.625 C-42.54039551 87.59422363 -43.45579102 87.56344727 -44.39892578 87.53173828 C-50.1469459 87.27553838 -55.41546819 86.39330104 -61 85 C-59.125 81.125 -59.125 81.125 -58 80 C-57.47016096 71.58418456 -58.16686801 63.45250685 -59.5625 55.15625 C-59.9918514 52.05878633 -60.07523759 49.12236012 -60 46 C-60.94101562 46.27714844 -61.88203125 46.55429688 -62.8515625 46.83984375 C-64.09679687 47.20207031 -65.34203125 47.56429687 -66.625 47.9375 C-67.85476563 48.29714844 -69.08453125 48.65679687 -70.3515625 49.02734375 C-76.22892606 50.59422119 -81.73612668 51.14299287 -87.8046875 51.09765625 C-88.5286673 51.0962413 -89.25264709 51.09482635 -89.99856567 51.09336853 C-92.29075407 51.08781075 -94.58284157 51.07526633 -96.875 51.0625 C-98.43749858 51.05747953 -99.99999871 51.05291759 -101.5625 51.04882812 C-105.37503835 51.03785519 -109.18750212 51.0206201 -113 51 C-113.14840332 52.0204541 -113.14840332 52.0204541 -113.29980469 53.06152344 C-114.14851954 56.62328493 -115.60149754 59.7459112 -117.203125 63.015625 C-117.52279236 63.67205994 -117.84245972 64.32849487 -118.17181396 65.00482178 C-118.84766546 66.38475202 -119.52695354 67.76300383 -120.20947266 69.13964844 C-121.24957237 71.24913271 -122.26340303 73.37003167 -123.27734375 75.4921875 C-123.93851919 76.83411542 -124.60122784 78.17528925 -125.265625 79.515625 C-125.56478821 80.15099182 -125.86395142 80.78635864 -126.17218018 81.440979 C-127.70684577 84.46374203 -128.44381092 85.8157959 -131.73339844 86.90527344 C-132.48137695 86.9365332 -133.22935547 86.96779297 -134 87 C-138.30140818 80.01974497 -142.24145224 72.91037922 -146 65.625 C-146.52110352 64.61928955 -147.04220703 63.6135791 -147.57910156 62.57739258 C-149.05692824 59.72039964 -150.5294038 56.86071987 -152 54 C-152.37318359 53.27699707 -152.74636719 52.55399414 -153.13085938 51.80908203 C-158 42.35993638 -158 42.35993638 -158 40 C-158.76699219 39.85304687 -159.53398437 39.70609375 -160.32421875 39.5546875 C-169.74437917 37.6509617 -178.89893433 35.10194387 -188.1171875 32.40234375 C-192.38790471 31.15678798 -196.67680112 30.04820019 -201 29 C-201.05406006 29.7847168 -201.10812012 30.56943359 -201.16381836 31.37792969 C-201.82389603 40.4933523 -202.84644159 49.53485471 -203.98242188 58.6015625 C-205.94735706 69.51371285 -205.94735706 69.51371285 -203.1875 79.5 C-198.91240671 82.43149255 -194.51240851 82.34569074 -189.49609375 82.71875 C-187 83 -187 83 -185 84 C-185.33 84.99 -185.66 85.98 -186 87 C-204.81 87 -223.62 87 -243 87 C-243 85.68 -243 84.36 -243 83 C-242.18015625 82.97421875 -241.3603125 82.9484375 -240.515625 82.921875 C-238.89914063 82.83679688 -238.89914063 82.83679688 -237.25 82.75 C-236.18265625 82.70359375 -235.1153125 82.6571875 -234.015625 82.609375 C-230.29124653 81.85678039 -229.36856678 80.93740402 -227 78 C-225.73732639 74.67420412 -225.73732639 74.67420412 -224.91796875 70.86328125 C-224.75338669 70.16399002 -224.58880463 69.46469879 -224.41923523 68.74421692 C-222.57888679 60.63348025 -221.42983244 52.42278663 -220.3125 44.1875 C-219.99561567 41.90028539 -219.6762762 39.61344868 -219.35404968 37.32698059 C-219.06762799 35.28790313 -218.78811409 33.2478588 -218.5090332 31.20776367 C-218 28 -218 28 -217 25 C-219.94349857 24.54343544 -222.88745166 24.09017914 -225.83203125 23.640625 C-228.83113095 23.18225688 -231.82787079 22.71038048 -234.82421875 22.234375 C-236.52861788 21.96857067 -238.23304491 21.70294525 -239.9375 21.4375 C-240.7222168 21.31076904 -241.50693359 21.18403809 -242.31542969 21.0534668 C-256.93070451 18.80050166 -271.62282563 18.75876382 -286.375 18.75 C-287.39878754 18.74932526 -288.42257507 18.74865051 -289.47738647 18.74795532 C-304.54017369 18.76371492 -319.16207798 19.18309908 -334 22 C-335.11810059 22.20882812 -336.23620117 22.41765625 -337.38818359 22.6328125 C-344.61145841 23.99951068 -351.81275901 25.45529323 -359 27 C-343.88501718 10.86469206 -307.25304638 3.90260656 -285.85803223 2.89958191 C-283.58192532 2.8528494 -281.30783326 2.83526487 -279.03125 2.83203125 C-278.19267456 2.82870285 -277.35409912 2.82537445 -276.4901123 2.82194519 C-274.72192935 2.81690959 -272.95373699 2.81453582 -271.18554688 2.81469727 C-268.53498839 2.81252863 -265.88485912 2.79438609 -263.234375 2.77539062 C-252.64718959 2.73998964 -242.46622009 3.35714232 -232 5 C-231.11650879 5.13543213 -230.23301758 5.27086426 -229.32275391 5.41040039 C-227.0609056 5.77975465 -224.81248314 6.1894166 -222.5625 6.625 C-221.72178955 6.78685791 -220.8810791 6.94871582 -220.01489258 7.11547852 C-211.35634526 8.84078384 -202.77104911 10.87671092 -194.1875 12.9375 C-193.15968918 13.18212982 -193.15968918 13.18212982 -192.1111145 13.43170166 C-183.92568361 15.3880021 -175.88418636 17.60066352 -167.86984253 20.17024231 C-160.09343232 22.64603328 -152.18196373 24.55962828 -144.25585938 26.4921875 C-143.12599609 26.77578125 -141.99613281 27.059375 -140.83203125 27.3515625 C-139.82889893 27.59729004 -138.8257666 27.84301758 -137.79223633 28.09619141 C-133.91674878 29.35063356 -130.82517787 30.67356795 -128.63671875 34.19140625 C-128.32347656 34.97386719 -128.01023438 35.75632813 -127.6875 36.5625 C-127.36136719 37.34753906 -127.03523437 38.13257813 -126.69921875 38.94140625 C-126 41 -126 41 -126 43 C-123.29391583 41.64695791 -123.03816953 40.19033456 -121.875 37.4375 C-121.52179688 36.61121094 -121.16859375 35.78492188 -120.8046875 34.93359375 C-120.53914062 34.29550781 -120.27359375 33.65742188 -120 33 C-119.19304687 33.0721875 -118.38609375 33.144375 -117.5546875 33.21875 C-107.95539471 33.95245391 -98.37633413 34.14027157 -88.75 34.1875 C-86.85096924 34.20683594 -86.85096924 34.20683594 -84.91357422 34.2265625 C-52.35535342 34.26055255 -25.12458658 19.35141457 0 0 Z " fill="#EFC775" transform="translate(384,184)"/>
<path d="M0 0 C1.2065625 0.0309375 1.2065625 0.0309375 2.4375 0.0625 C3.91290043 2.76219441 4.74535457 5.01613331 5.13598633 8.0637207 C5.24000259 8.84536591 5.34401886 9.62701111 5.45118713 10.43234253 C5.55624069 11.27580231 5.66129425 12.11926208 5.76953125 12.98828125 C5.88638779 13.87589142 6.00324432 14.76350159 6.12364197 15.67800903 C6.37443479 17.58516119 6.6222234 19.49271034 6.86730957 21.40060425 C7.51080915 26.40209442 8.17845593 31.40033024 8.84765625 36.3984375 C8.9809433 37.39578415 9.11423035 38.3931308 9.2515564 39.42070007 C10.74540786 50.50245584 12.52331867 61.52891122 14.359375 72.55859375 C15.10957385 77.06994296 15.85657298 81.58162672 16.578125 86.09765625 C16.8261084 87.63691772 16.8261084 87.63691772 17.07910156 89.20727539 C17.41257983 91.86397041 17.50500585 94.38896169 17.4375 97.0625 C32.18298019 90.20096684 45.08345815 81.62790953 57.4375 71.0625 C58.66535225 70.04008607 59.89426113 69.0189373 61.125 68 C62.2696875 67.0409375 62.2696875 67.0409375 63.4375 66.0625 C60.91867801 72.03514171 55.64924014 76.19761723 51.125 80.6875 C50.62507538 81.18526947 50.12515076 81.68303894 49.6100769 82.19589233 C42.31354091 89.44175692 35.04503695 96.3571211 26.4375 102.0625 C25.86016113 102.44647949 25.28282227 102.83045898 24.68798828 103.22607422 C15.87791505 109.00673516 6.59079039 114.06858104 -3.5625 117.0625 C-4.5525 116.7325 -5.5425 116.4025 -6.5625 116.0625 C-6.5625 115.4025 -6.5625 114.7425 -6.5625 114.0625 C-7.0575 113.60875 -7.5525 113.155 -8.0625 112.6875 C-9.5625 111.0625 -9.5625 111.0625 -9.5625 107.0625 C-18.8025 107.0625 -28.0425 107.0625 -37.5625 107.0625 C-34.18628708 96.93386124 -34.18628708 96.93386124 -32.546875 93.51953125 C-32.18601807 92.76269043 -31.82516113 92.00584961 -31.45336914 91.22607422 C-31.07688232 90.45021973 -30.70039551 89.67436523 -30.3125 88.875 C-29.9198999 88.05273926 -29.5272998 87.23047852 -29.12280273 86.38330078 C-26.99606682 81.94883016 -24.79913773 77.55909907 -22.5324707 73.19482422 C-17.87992392 64.18513045 -16.24256071 57.14058759 -16.5625 47.0625 C-17.2225 47.0625 -17.8825 47.0625 -18.5625 47.0625 C-18.43681641 45.83273438 -18.43681641 45.83273438 -18.30859375 44.578125 C-18.20675781 43.50046875 -18.10492188 42.4228125 -18 41.3125 C-17.89558594 40.24515625 -17.79117187 39.1778125 -17.68359375 38.078125 C-17.3899515 35.20940338 -17.3899515 35.20940338 -18.19042969 33.18164062 C-18.71060949 30.21893674 -17.76780891 28.78925047 -16.39453125 26.140625 C-15.91306641 25.19703125 -15.43160156 24.2534375 -14.93554688 23.28125 C-14.42056641 22.3015625 -13.90558594 21.321875 -13.375 20.3125 C-12.6315332 18.86617187 -12.6315332 18.86617187 -11.87304688 17.390625 C-10.89908855 15.49674567 -9.92020029 13.60539231 -8.93603516 11.71679688 C-7.68413271 9.29754991 -6.46634455 6.86490624 -5.26171875 4.421875 C-3.06285894 0.07470388 -3.06285894 0.07470388 0 0 Z " fill="#BB9F60" transform="translate(328.5625,88.9375)"/>
<path d="M0 0 C0 3.87031676 -1.01624981 4.40195889 -3.69921875 7.09765625 C-4.49094482 7.89453857 -5.2826709 8.6914209 -6.09838867 9.51245117 C-6.95279541 10.35396729 -7.80720215 11.1954834 -8.6875 12.0625 C-9.54641846 12.92141846 -10.40533691 13.78033691 -11.2902832 14.6652832 C-17.08724342 20.37568125 -22.98061847 25.31011023 -29.82421875 29.69921875 C-32.31495215 31.88879001 -32.31495215 31.88879001 -32.4765625 35.36328125 C-32.02770951 41.78987024 -30.80112549 48.16286471 -29.6875 54.5 C-29.47416016 55.78003906 -29.26082031 57.06007812 -29.04101562 58.37890625 C-27.47143919 70.10945906 -27.47143919 70.10945906 -21.0625 79.4375 C-16.43005071 81.80099454 -12.43193544 82.19976452 -7.25 82.5625 C-5.49429688 82.68818359 -5.49429688 82.68818359 -3.703125 82.81640625 C-2.81109375 82.87699219 -1.9190625 82.93757813 -1 83 C-1 84.32 -1 85.64 -1 87 C-2.70000961 88.70000961 -4.87075144 88.13013576 -7.1953125 88.1328125 C-8.84200928 88.13595459 -8.84200928 88.13595459 -10.52197266 88.13916016 C-11.71097168 88.1344873 -12.8999707 88.12981445 -14.125 88.125 C-15.33591309 88.12161621 -16.54682617 88.11823242 -17.79443359 88.11474609 C-25.74248322 88.07008829 -33.68257944 87.92951438 -41.625 87.625 C-42.54039551 87.59422363 -43.45579102 87.56344727 -44.39892578 87.53173828 C-50.1469459 87.27553838 -55.41546819 86.39330104 -61 85 C-59.125 81.125 -59.125 81.125 -58 80 C-57.47016096 71.58418456 -58.16686801 63.45250685 -59.5625 55.15625 C-59.9918514 52.05878633 -60.07523759 49.12236012 -60 46 C-60.94101562 46.27714844 -61.88203125 46.55429688 -62.8515625 46.83984375 C-64.71941406 47.38318359 -64.71941406 47.38318359 -66.625 47.9375 C-68.46964844 48.47697266 -68.46964844 48.47697266 -70.3515625 49.02734375 C-76.39195117 50.63768291 -81.79398416 51.10700027 -88 51 C-88.33 47.37 -88.66 43.74 -89 40 C-93.95 39.67 -98.9 39.34 -104 39 C-104 38.34 -104 37.68 -104 37 C-104.66 36.67 -105.32 36.34 -106 36 C-106.33 35.34 -106.66 34.68 -107 34 C-105.59476074 34.01571045 -105.59476074 34.01571045 -104.16113281 34.03173828 C-100.6274155 34.06617742 -97.093881 34.09107035 -93.56005859 34.10986328 C-92.04147496 34.11981384 -90.52290993 34.13337916 -89.00439453 34.15087891 C-54.56676774 34.53730772 -26.77159413 20.6199698 0 0 Z " fill="#A68034" transform="translate(384,184)"/>
<path d="M0 0 C4.71499536 -0.23539311 8.23494011 0.53912692 12.6875 2.0625 C21.59054556 5.0232828 30.6593637 7.27451491 39.77026367 9.50024414 C40.89150635 9.7811792 42.01274902 10.06211426 43.16796875 10.3515625 C44.17110107 10.59729004 45.1742334 10.84301758 46.20776367 11.09619141 C50.08325122 12.35063356 53.17482213 13.67356795 55.36328125 17.19140625 C55.67652344 17.97386719 55.98976562 18.75632813 56.3125 19.5625 C56.63863281 20.34753906 56.96476562 21.13257813 57.30078125 21.94140625 C58 24 58 24 58 26 C60.70608417 24.64695791 60.96183047 23.19033456 62.125 20.4375 C62.65480469 19.19806641 62.65480469 19.19806641 63.1953125 17.93359375 C63.46085937 17.29550781 63.72640625 16.65742188 64 16 C69.52677733 15.80607799 73.75614911 16.2520497 79 18 C79.495 19.98 79.495 19.98 80 22 C80.804375 21.814375 81.60875 21.62875 82.4375 21.4375 C86.79040998 20.90293211 90.68144046 21.40903922 95 22 C95.33 22 95.66 22 96 22 C96 25.96 96 29.92 96 34 C87.75 34 79.5 34 71 34 C70.67 35.65 70.34 37.3 70 39 C68.98319362 41.38193052 67.93437835 43.69341806 66.796875 46.015625 C66.47720764 46.67205994 66.15754028 47.32849487 65.82818604 48.00482178 C65.15233454 49.38475202 64.47304646 50.76300383 63.79052734 52.13964844 C62.75042763 54.24913271 61.73659697 56.37003167 60.72265625 58.4921875 C60.06148081 59.83411542 59.39877216 61.17528925 58.734375 62.515625 C58.43521179 63.15099182 58.13604858 63.78635864 57.82781982 64.440979 C56.29315423 67.46374203 55.55618908 68.8157959 52.26660156 69.90527344 C51.51862305 69.9365332 50.77064453 69.96779297 50 70 C45.69859182 63.01974497 41.75854776 55.91037922 38 48.625 C37.47889648 47.61928955 36.95779297 46.6135791 36.42089844 45.57739258 C34.94307176 42.72039964 33.4705962 39.86071987 32 37 C31.62681641 36.27699707 31.25363281 35.55399414 30.86914062 34.80908203 C26 25.35993638 26 25.35993638 26 23 C25.12859375 22.82984375 24.2571875 22.6596875 23.359375 22.484375 C15.32825055 20.85033669 7.71742674 18.7844928 0 16 C3.36541838 14.91825838 4.29847322 15.07461831 8 16 C8 12.7 8 9.4 8 6 C5.69 5.67 3.38 5.34 1 5 C0.67 3.35 0.34 1.7 0 0 Z " fill="#DACFB9" transform="translate(200,201)"/>
<path d="M0 0 C0.66 0.66 1.32 1.32 2 2 C1.66887313 6.10597317 1.15559618 10.03795597 0 14 C0.66 14 1.32 14 2 14 C2 16.97 2 19.94 2 23 C2.99 23.33 3.98 23.66 5 24 C4.34 24.66 3.68 25.32 3 26 C2.20262866 27.75923663 1.46075169 29.54386307 0.75 31.33984375 C-1.91188783 37.88039879 -4.90744653 44.21648609 -8 50.5625 C-9.02197872 52.66741303 -10.0428215 54.77287797 -11.0625 56.87890625 C-11.50722656 57.7922876 -11.95195312 58.70566895 -12.41015625 59.64672852 C-14.66553425 64.40373357 -16.82150034 69.20730074 -19 74 C-9.76 73.67 -0.52 73.34 9 73 C10 78 10 78 10 80 C10.99 80.33 11.98 80.66 13 81 C13 81.99 13 82.98 13 84 C5.25869751 87.29899926 -2.05653622 87.46171092 -10.32641602 87.39111328 C-12.53401202 87.37520529 -14.73972954 87.39092813 -16.94726562 87.41015625 C-26.9291246 87.42268316 -36.264686 86.16852576 -46 84 C-46 83.34 -46 82.68 -46 82 C-47.98 81.34 -49.96 80.68 -52 80 C-49 78 -49 78 -46 77 C-46 76.01 -46 75.02 -46 74 C-44.515 73.01 -44.515 73.01 -43 72 C-43 71.67 -43 71.34 -43 71 C-42.42862305 71.07645752 -41.85724609 71.15291504 -41.26855469 71.23168945 C-38.45050703 71.31465944 -36.61602532 71.09036188 -34 70 C-30.9603948 66.12973021 -29.17251679 61.68413599 -27.25 57.1875 C-26.65894397 55.87800535 -26.06440636 54.57007706 -25.46655273 53.26367188 C-24.23070724 50.54993298 -23.01452947 47.82864844 -21.81396484 45.09912109 C-19.52090551 39.89498315 -17.12706901 34.73892962 -14.72753906 29.58325195 C-13.65225575 27.26918552 -12.58463443 24.9515362 -11.52636719 22.62963867 C-7.98585738 14.90230792 -4.10750105 7.43747551 0 0 Z " fill="#E1DBD0" transform="translate(310,122)"/>
<path d="M0 0 C0.33 0 0.66 0 1 0 C1.81821543 5.17369237 2.6360701 10.3474416 3.45361328 15.52124023 C3.73086171 17.27548707 4.00820289 19.02971925 4.28564453 20.78393555 C4.9498457 24.98374906 5.61273084 29.183759 6.27246094 33.38427734 C6.72193175 36.2451421 7.177648 39.10482925 7.64160156 41.96337891 C7.82432617 43.10597168 8.00705078 44.24856445 8.1953125 45.42578125 C8.35273926 46.39555908 8.51016602 47.36533691 8.67236328 48.36450195 C8.99262346 50.9406634 9.06060725 53.40712764 9 56 C23.74548019 49.13846684 36.64595815 40.56540953 49 30 C50.22785225 28.97758607 51.45676113 27.9564373 52.6875 26.9375 C53.450625 26.298125 54.21375 25.65875 55 25 C52.48117801 30.97264171 47.21174014 35.13511723 42.6875 39.625 C42.18757538 40.12276947 41.68765076 40.62053894 41.1725769 41.13339233 C27.73684166 54.47582199 13.07631968 66.65638506 -5 73 C-5.66 72.34 -6.32 71.68 -7 71 C-4.03 70.505 -4.03 70.505 -1 70 C-1.00222061 69.19677811 -1.00444122 68.39355621 -1.00672913 67.56599426 C-1.02678337 59.98873776 -1.04200033 52.41149416 -1.05181217 44.83421803 C-1.05702613 40.93886493 -1.06409678 37.04353381 -1.07543945 33.14819336 C-1.08632118 29.38753227 -1.09228804 25.62689228 -1.09487724 21.86621666 C-1.09672196 20.43293615 -1.10032423 18.99965677 -1.10573006 17.56638527 C-1.11301052 15.55574296 -1.11340866 13.54507932 -1.11352539 11.53442383 C-1.115746 10.39080887 -1.11796661 9.24719391 -1.12025452 8.06892395 C-1.01012639 5.25842788 -0.64382483 2.73201526 0 0 Z " fill="#AC873A" transform="translate(337,130)"/>
<path d="M0 0 C0.33 0 0.66 0 1 0 C1.72296798 4.49663008 2.43452309 8.99487611 3.13623047 13.49487305 C3.37572715 15.02074017 3.61816422 16.54614914 3.86376953 18.07104492 C5.26191184 26.76520739 6.43121308 35.15893406 6 44 C2.50007304 44.79706768 -0.7142231 45.11863027 -4.30078125 45.09765625 C-5.27724609 45.09443359 -6.25371094 45.09121094 -7.25976562 45.08789062 C-8.26716797 45.07951172 -9.27457031 45.07113281 -10.3125 45.0625 C-11.33923828 45.05798828 -12.36597656 45.05347656 -13.42382812 45.04882812 C-15.94927882 45.03708184 -18.47460905 45.02065565 -21 45 C-19.06759925 38.75430361 -16.71583529 32.88472044 -13.875 27 C-13.48900635 26.19199951 -13.1030127 25.38399902 -12.70532227 24.55151367 C-8.70137106 16.24531569 -4.390774 8.10684278 0 0 Z " fill="#1B1514" transform="translate(312,151)"/>
<path d="M0 0 C0.33 1.32 0.66 2.64 1 4 C1.66 3.67 2.32 3.34 3 3 C2.75 4.875 2.75 4.875 2 7 C0.67532254 7.6837045 -0.65863633 8.34964186 -2 9 C-3.22527948 10.95021083 -3.22527948 10.95021083 -4 13 C-4.33 13.66 -4.66 14.32 -5 15 C-4.01 14.67 -3.02 14.34 -2 14 C-0.44575344 15.55424656 -0.87278715 17.03550136 -0.87060547 19.19677734 C-0.86745331 20.08795258 -0.86430115 20.97912781 -0.86105347 21.89730835 C-0.8630777 22.86705597 -0.86510193 23.83680359 -0.8671875 24.8359375 C-0.86623077 25.82622955 -0.86527405 26.81652161 -0.86428833 27.83682251 C-0.86360627 29.93678857 -0.86546231 32.03675672 -0.86962891 34.13671875 C-0.87496553 37.35421492 -0.8696906 40.57157077 -0.86328125 43.7890625 C-0.86394225 45.82552114 -0.86522386 47.8619797 -0.8671875 49.8984375 C-0.86516327 50.86413666 -0.86313904 51.82983582 -0.86105347 52.82479858 C-0.86420563 53.72227814 -0.86735779 54.61975769 -0.87060547 55.54443359 C-0.87140106 56.33417572 -0.87219666 57.12391785 -0.87301636 57.93759155 C-1 60 -1 60 -2 63 C-2.99 63.495 -2.99 63.495 -4 64 C-3.979375 65.216875 -3.95875 66.43375 -3.9375 67.6875 C-3.93175884 70.91977322 -4.21233685 73.84934741 -5 77 C-6.51503247 74.23185989 -7.34569843 71.85770883 -7.81640625 68.7421875 C-7.94080078 67.95199219 -8.06519531 67.16179687 -8.19335938 66.34765625 C-8.31517578 65.53167969 -8.43699219 64.71570313 -8.5625 63.875 C-8.81091107 62.24695209 -9.06208321 60.61932236 -9.31640625 58.9921875 C-9.47798218 57.91493408 -9.47798218 57.91493408 -9.64282227 56.81591797 C-9.933981 54.91021625 -9.933981 54.91021625 -11 53 C-10.855625 52.319375 -10.71125 51.63875 -10.5625 50.9375 C-9.79807235 46.94548895 -9.92055542 43.05167346 -10 39 C-10.66 39 -11.32 39 -12 39 C-11.87431641 37.77023438 -11.87431641 37.77023438 -11.74609375 36.515625 C-11.59333984 34.89914063 -11.59333984 34.89914063 -11.4375 33.25 C-11.33308594 32.18265625 -11.22867187 31.1153125 -11.12109375 30.015625 C-10.82484406 27.14807333 -10.82484406 27.14807333 -11.63452148 25.13452148 C-12.15486844 22.09551451 -11.12355534 20.54987518 -9.7265625 17.83203125 C-9.2315625 16.85685547 -8.7365625 15.88167969 -8.2265625 14.87695312 C-7.69804687 13.86568359 -7.16953125 12.85441406 -6.625 11.8125 C-6.10421875 10.78962891 -5.5834375 9.76675781 -5.046875 8.71289062 C-1.19631165 1.19631165 -1.19631165 1.19631165 0 0 Z " fill="#C8B387" transform="translate(322,97)"/>
<path d="M0 0 C0.5480127 0.62559814 1.09602539 1.25119629 1.66064453 1.89575195 C4.29793505 4.2679923 6.00692224 4.85758988 9.4296875 5.66796875 C10.47253906 5.92126953 11.51539063 6.17457031 12.58984375 6.43554688 C13.67394531 6.68369141 14.75804687 6.93183594 15.875 7.1875 C16.95136719 7.44724609 18.02773437 7.70699219 19.13671875 7.97460938 C24.07526902 9.15291946 28.98425932 10.2020202 34 11 C32.6875 13 32.6875 13 31 15 C30.01 15 29.02 15 28 15 C28.495 16.98 28.495 16.98 29 19 C27.35 19.66 25.7 20.32 24 21 C26.64 21.33 29.28 21.66 32 22 C28.11291657 24.75335076 24.41147283 23.73294526 20 23 C17.33573232 22.45594534 14.70391836 21.88527385 12.0625 21.25 C11.34392822 21.07952148 10.62535645 20.90904297 9.88500977 20.73339844 C1.83824595 18.78298501 -6.0833081 16.41761305 -14 14 C-13.67 13.01 -13.34 12.02 -13 11 C-9.7 11 -6.4 11 -3 11 C-0.98515292 6.97030584 -0.90391329 5.32390204 -1 1 C-0.67 0.67 -0.34 0.34 0 0 Z " fill="#E8BA6D" transform="translate(236,181)"/>
<path d="M0 0 C14.19 0 28.38 0 43 0 C43 0.66 43 1.32 43 2 C43.66 2 44.32 2 45 2 C45 2.66 45 3.32 45 4 C45.99 4.33 46.98 4.66 48 5 C45.36 5.66 42.72 6.32 40 7 C40 7.66 40 8.32 40 9 C41.65 9 43.3 9 45 9 C45.33 8.01 45.66 7.02 46 6 C46 6.66 46 7.32 46 8 C47.32 8.33 48.64 8.66 50 9 C50 9.66 50 10.32 50 11 C49.34 11 48.68 11 48 11 C47.67 11.99 47.34 12.98 47 14 C47 13.34 47 12.68 47 12 C46.05898438 12.27714844 45.11796875 12.55429688 44.1484375 12.83984375 C42.90320313 13.20207031 41.65796875 13.56429687 40.375 13.9375 C39.14523437 14.29714844 37.91546875 14.65679687 36.6484375 15.02734375 C30.60804883 16.63768291 25.20601584 17.10700027 19 17 C18.67 13.37 18.34 9.74 18 6 C13.05 5.67 8.1 5.34 3 5 C3 4.34 3 3.68 3 3 C2.34 2.67 1.68 2.34 1 2 C0.67 1.34 0.34 0.68 0 0 Z " fill="#AE883A" transform="translate(277,218)"/>
<path d="M0 0 C1.0625 1.875 1.0625 1.875 2 4 C1.67 4.66 1.34 5.32 1 6 C3.70879335 7.35439668 6.00933268 7.06501451 9 7 C9.33 6.34 9.66 5.68 10 5 C12.97 5.33 15.94 5.66 19 6 C19.66 4.68 20.32 3.36 21 2 C21.598125 2.639375 22.19625 3.27875 22.8125 3.9375 C26.77321646 7.67188981 31.32048912 7.33326347 36.50390625 7.71875 C39 8 39 8 41 9 C40.67 9.99 40.34 10.98 40 12 C21.19 12 2.38 12 -17 12 C-17 10.68 -17 9.36 -17 8 C-15.77023438 7.96132813 -15.77023438 7.96132813 -14.515625 7.921875 C-12.89914063 7.83679688 -12.89914063 7.83679688 -11.25 7.75 C-10.18265625 7.70359375 -9.1153125 7.6571875 -8.015625 7.609375 C-4.42278414 6.88336053 -3.23081509 5.85627727 -1 3 C-0.67 2.01 -0.34 1.02 0 0 Z " fill="#EAB862" transform="translate(158,259)"/>
<path d="M0 0 C0.66 0.66 1.32 1.32 2 2 C1.66887313 6.10597317 1.15559618 10.03795597 0 14 C0.66 14 1.32 14 2 14 C2 16.97 2 19.94 2 23 C2.99 23.33 3.98 23.66 5 24 C4.34 24.66 3.68 25.32 3 26 C2.11723632 27.91548401 1.29078073 29.85724643 0.5 31.8125 C0.0771875 32.85019531 -0.345625 33.88789063 -0.78125 34.95703125 C-1.38453125 36.46330078 -1.38453125 36.46330078 -2 38 C-2.3815625 38.95261719 -2.763125 39.90523437 -3.15625 40.88671875 C-3.4346875 41.58410156 -3.713125 42.28148437 -4 43 C-4.66 42.67 -5.32 42.34 -6 42 C-6 35.07 -6 28.14 -6 21 C-6.66 21 -7.32 21 -8 21 C-9.15661707 17.53014878 -8.90024784 17.15859213 -7.3828125 14.0234375 C-7.02316406 13.270625 -6.66351563 12.5178125 -6.29296875 11.7421875 C-5.90753906 10.96101562 -5.52210938 10.17984375 -5.125 9.375 C-4.55845703 8.19164062 -4.55845703 8.19164062 -3.98046875 6.984375 C-1.1761576 1.1761576 -1.1761576 1.1761576 0 0 Z " fill="#D1C4A8" transform="translate(310,122)"/>
<path d="M0 0 C-0.9590625 0.433125 -0.9590625 0.433125 -1.9375 0.875 C-4.15206079 1.82823451 -4.15206079 1.82823451 -5 4 C-8.0625 4.625 -8.0625 4.625 -11 5 C-11 6.32 -11 7.64 -11 9 C-10.34 9.66 -9.68 10.32 -9 11 C-10.24652344 11.17015625 -11.49304687 11.3403125 -12.77734375 11.515625 C-22.24604554 12.8504035 -31.53515077 14.39429445 -40.79272461 16.81738281 C-45.80206142 18.09896929 -45.80206142 18.09896929 -48 17 C-37.95640562 11.31440203 -27.92878682 6.70847581 -17 3 C-15.75992188 2.57332031 -14.51984375 2.14664063 -13.2421875 1.70703125 C-3.80472556 -1.38600717 -3.80472556 -1.38600717 0 0 Z " fill="#E4C87E" transform="translate(73,193)"/>
<path d="M0 0 C0 4.17126054 -1.66153717 5.04878537 -4.57421875 7.97265625 C-5.05004395 8.45252991 -5.52586914 8.93240356 -6.01611328 9.42681885 C-7.56446222 10.98113651 -9.1248419 12.52257777 -10.6875 14.0625 C-11.21244049 14.58411713 -11.73738098 15.10573425 -12.27822876 15.64315796 C-30.29017407 33.52029108 -30.29017407 33.52029108 -40 38 C-42 36 -42 36 -43 34 C-43.66 33.67 -44.32 33.34 -45 33 C-45 32.34 -45 31.68 -45 31 C-43.74509766 30.41605469 -43.74509766 30.41605469 -42.46484375 29.8203125 C-26.69114357 22.23915427 -12.29278029 12.53338631 0 0 Z " fill="#A48035" transform="translate(391,155)"/>
<path d="M0 0 C1 4.75 1 4.75 1 7 C1.99 7.33 2.98 7.66 4 8 C4 8.99 4 9.98 4 11 C-1.43629439 13.07096929 -6.09076849 14.57933642 -12 14 C-13.32 13.34 -14.64 12.68 -16 12 C-15.67 8.7 -15.34 5.4 -15 2 C-17.31 2 -19.62 2 -22 2 C-22 1.67 -22 1.34 -22 1 C-19.45847098 0.83096719 -16.91681012 0.66470573 -14.375 0.5 C-13.30572266 0.42845703 -13.30572266 0.42845703 -12.21484375 0.35546875 C-8.13492439 0.09345558 -4.09108781 -0.05162256 0 0 Z " fill="#CDBEA0" transform="translate(319,195)"/>
<path d="M0 0 C0.33 0.66 0.66 1.32 1 2 C1.99 2.33 2.98 2.66 4 3 C4.25 8.625 4.25 8.625 2 12 C2.66 12 3.32 12 4 12 C3.67 13.32 3.34 14.64 3 16 C1.24967156 15.85816304 -0.50025534 15.71136571 -2.25 15.5625 C-3.22453125 15.48128906 -4.1990625 15.40007812 -5.203125 15.31640625 C-7.56461753 15.04925416 -9.71901065 14.64628032 -12 14 C-12 13.34 -12 12.68 -12 12 C-13.98 11.34 -15.96 10.68 -18 10 C-15 8 -15 8 -12 7 C-12 6.01 -12 5.02 -12 4 C-11.01 3.34 -10.02 2.68 -9 2 C-9 1.67 -9 1.34 -9 1 C-4.545 0.505 -4.545 0.505 0 0 Z " fill="#EACD9E" transform="translate(276,192)"/>
<path d="M0 0 C0.66 0.33 1.32 0.66 2 1 C2.99 0.67 3.98 0.34 5 0 C5.99 0.33 6.98 0.66 8 1 C8.33 2.65 8.66 4.3 9 6 C6.03 5.505 6.03 5.505 3 5 C2.94593994 5.77819092 2.89187988 6.55638184 2.83618164 7.3581543 C2.24104467 15.53839425 1.40730812 23.66889589 0.4375 31.8125 C0.29892578 32.99392578 0.16035156 34.17535156 0.01757812 35.39257812 C-0.3193173 38.26199774 -0.65853564 41.13112115 -1 44 C-1.4640625 43.0409375 -1.4640625 43.0409375 -1.9375 42.0625 C-2.8345163 40.06389179 -2.8345163 40.06389179 -4 39 C-4.21881525 34.47585674 -4.18579066 29.94638235 -4.18530273 25.41748047 C-4.18748427 23.14141003 -4.20562229 20.86582801 -4.22460938 18.58984375 C-4.22754423 17.14583499 -4.22952841 15.70182393 -4.23046875 14.2578125 C-4.23457764 12.9392627 -4.23868652 11.62071289 -4.24291992 10.26220703 C-3.99415428 6.92149698 -3.40601716 5.40601716 -1 3 C-0.67 2.01 -0.34 1.02 0 0 Z " fill="#EABA6A" transform="translate(180,208)"/>
<path d="M0 0 C15.84 0.495 15.84 0.495 32 1 C32 1.33 32 1.66 32 2 C30.35 2 28.7 2 27 2 C27.12568359 3.37285156 27.12568359 3.37285156 27.25390625 4.7734375 C27.35574219 5.96195313 27.45757812 7.15046875 27.5625 8.375 C27.66691406 9.55835938 27.77132813 10.74171875 27.87890625 11.9609375 C28 15 28 15 27 17 C24.36 17 21.72 17 19 17 C18.67 13.37 18.34 9.74 18 6 C13.05 5.67 8.1 5.34 3 5 C3 4.34 3 3.68 3 3 C2.34 2.67 1.68 2.34 1 2 C0.67 1.34 0.34 0.68 0 0 Z " fill="#B39249" transform="translate(277,218)"/>
<path d="M0 0 C0 1.65 0 3.3 0 5 C0.66 5.33 1.32 5.66 2 6 C2 6.99 2 7.98 2 9 C-7.29628303 10.94384796 -16.28038371 11.24587901 -25.75 11.125 C-27.14061846 11.11493717 -28.53124408 11.10581723 -29.921875 11.09765625 C-33.28143819 11.07432595 -36.64062175 11.0415923 -40 11 C-40 10.67 -40 10.34 -40 10 C-29.605 9.505 -29.605 9.505 -19 9 C-19 8.34 -19 7.68 -19 7 C-18.01 6.67 -17.02 6.34 -16 6 C-16 5.34 -16 4.68 -16 4 C-19.00778521 2.99740493 -21.53820647 2.69685358 -24.6875 2.4375 C-25.68136719 2.35371094 -26.67523438 2.26992187 -27.69921875 2.18359375 C-28.83810547 2.09271484 -28.83810547 2.09271484 -30 2 C-30 1.67 -30 1.34 -30 1 C-26.1250877 0.83125237 -22.25005773 0.66537155 -18.375 0.5 C-16.73337891 0.42845703 -16.73337891 0.42845703 -15.05859375 0.35546875 C-13.99511719 0.31035156 -12.93164062 0.26523438 -11.8359375 0.21875 C-10.86188965 0.17685547 -9.8878418 0.13496094 -8.88427734 0.09179688 C-5.9208325 -0.00251964 -2.96473674 -0.01538125 0 0 Z " fill="#28201B" transform="translate(320,208)"/>
<path d="M0 0 C2.58958495 2.30293907 3.87269589 4.50743847 5.26171875 7.66796875 C5.85629883 9.00698242 5.85629883 9.00698242 6.46289062 10.37304688 C6.86701172 11.30181641 7.27113281 12.23058594 7.6875 13.1875 C8.10322266 14.12787109 8.51894531 15.06824219 8.94726562 16.03710938 C9.9710844 18.35541165 10.98838143 20.67635433 12 23 C1.375 22.125 1.375 22.125 -2 21 C-2.28307925 13.75002578 -1.50974035 7.09038772 0 0 Z " fill="#221B13" transform="translate(191,154)"/>
<path d="M0 0 C2.46430633 2.91072956 3.44401152 5.00344422 3.94921875 8.7734375 C4.13774414 10.1346875 4.13774414 10.1346875 4.33007812 11.5234375 C4.44802734 12.46445313 4.56597656 13.40546875 4.6875 14.375 C4.88182617 15.77492188 4.88182617 15.77492188 5.08007812 17.203125 C5.6996676 21.83201567 6.16439483 26.31866158 6 31 C3.69 31 1.38 31 -1 31 C-1.02892857 27.04168191 -1.04677427 23.08339083 -1.0625 19.125 C-1.07506836 17.43310547 -1.07506836 17.43310547 -1.08789062 15.70703125 C-1.09111328 14.63066406 -1.09433594 13.55429688 -1.09765625 12.4453125 C-1.10289307 11.45031738 -1.10812988 10.45532227 -1.11352539 9.43017578 C-1 7 -1 7 0 5 C-0.66 4.67 -1.32 4.34 -2 4 C-2.33 3.01 -2.66 2.02 -3 1 C-2.01 0.67 -1.02 0.34 0 0 Z " fill="#B69954" transform="translate(330,89)"/>
<path d="M0 0 C0.33 0.99 0.66 1.98 1 3 C1.66 3 2.32 3 3 3 C3.33 3.99 3.66 4.98 4 6 C3.34 6 2.68 6 2 6 C2.33 6.66 2.66 7.32 3 8 C3.14997911 9.32645016 3.24835703 10.65902094 3.31640625 11.9921875 C3.37924805 13.17361328 3.37924805 13.17361328 3.44335938 14.37890625 C3.48267578 15.20261719 3.52199219 16.02632812 3.5625 16.875 C3.60568359 17.69097656 3.64886719 18.50695312 3.69335938 19.34765625 C3.87633438 22.90840797 4 26.43233784 4 30 C2.02 30 0.04 30 -2 30 C-2.33 30.99 -2.66 31.98 -3 33 C-3.66 33 -4.32 33 -5 33 C-4.89042969 32.29359375 -4.78085938 31.5871875 -4.66796875 30.859375 C-3.07923452 20.57781041 -1.53875528 10.28914363 0 0 Z " fill="#EFBF62" transform="translate(164,226)"/>
<path d="M0 0 C0.33 1.32 0.66 2.64 1 4 C1.66 4 2.32 4 3 4 C3.05422947 5.4370809 3.09289723 6.87475462 3.125 8.3125 C3.14820313 9.11300781 3.17140625 9.91351563 3.1953125 10.73828125 C3 13 3 13 1 16 C1.66 16 2.32 16 3 16 C2.67 21.28 2.34 26.56 2 32 C-0.97 32.495 -0.97 32.495 -4 33 C-4.33 33.99 -4.66 34.98 -5 36 C-3.57080529 23.9611363 -1.84151337 11.98211367 0 0 Z " fill="#E9CE82" transform="translate(180,120)"/>
<path d="M0 0 C0.99 0.33 1.98 0.66 3 1 C3.144375 2.2375 3.28875 3.475 3.4375 4.75 C3.78640918 7.57117996 4.26025677 10.2523823 5 13 C5 14.66666667 5 16.33333333 5 18 C5.66 18 6.32 18 7 18 C7 18.66 7 19.32 7 20 C8.98 19.67 10.96 19.34 13 19 C13 19.99 13 20.98 13 22 C10.25 22.6875 10.25 22.6875 7 23 C4.9375 21.625 4.9375 21.625 3 20 C2.154375 19.855625 1.30875 19.71125 0.4375 19.5625 C-2 19 -2 19 -3.8125 17.0625 C-5 15 -5 15 -5 13 C-4.175 12.608125 -3.35 12.21625 -2.5 11.8125 C-1.675 11.214375 -0.85 10.61625 0 10 C0.41666667 6.5 0.41666667 6.5 0 3 C0 2.01 0 1.02 0 0 Z " fill="#FCE28D" transform="translate(203,168)"/>
<path d="M0 0 C0.69738281 0.05220703 1.39476562 0.10441406 2.11328125 0.15820312 C3.82596203 0.28724072 5.53805066 0.42409614 7.25 0.5625 C7.25 1.8825 7.25 3.2025 7.25 4.5625 C5.54999039 6.26250961 3.37924856 5.69263576 1.0546875 5.6953125 C-0.59309692 5.69821289 -0.59309692 5.69821289 -2.27416992 5.70117188 C-4.05658081 5.6944043 -4.05658081 5.6944043 -5.875 5.6875 C-7.07938721 5.68556641 -8.28377441 5.68363281 -9.5246582 5.68164062 C-20.94893232 5.6276783 -32.34390122 5.18468093 -43.75 4.5625 C-43.75 4.2325 -43.75 3.9025 -43.75 3.5625 C-31.87 3.5625 -19.99 3.5625 -7.75 3.5625 C-9.07 2.5725 -10.39 1.5825 -11.75 0.5625 C-7.84519751 -0.79612973 -4.0398224 -0.33219712 0 0 Z " fill="#846628" transform="translate(375.75,266.4375)"/>
<path d="M0 0 C2 2 4 4 6 6 C5.01 6 4.02 6 3 6 C3.99 7.32 4.98 8.64 6 10 C5.34 10.66 4.68 11.32 4 12 C4 13.32 4 14.64 4 16 C-2.79707213 17.38458877 -7.52086573 16.35001386 -14 14 C-13.67 13.01 -13.34 12.02 -13 11 C-9.7 11 -6.4 11 -3 11 C-0.98515292 6.97030584 -0.90391329 5.32390204 -1 1 C-0.67 0.67 -0.34 0.34 0 0 Z " fill="#F0C16D" transform="translate(236,181)"/>
<path d="M0 0 C0 3 0 3 -2.11132812 5.4519043 C-3.07697101 6.41707201 -4.05087603 7.37401783 -5.03125 8.32421875 C-5.54175903 8.83048294 -6.05226807 9.33674713 -6.57824707 9.85835266 C-8.21193407 11.47523405 -9.85573744 13.08138126 -11.5 14.6875 C-12.6087547 15.78121031 -13.71683647 16.87560326 -14.82421875 17.97070312 C-17.54173139 20.65512158 -20.26836361 23.3299581 -23 26 C-23.33 25.34 -23.66 24.68 -24 24 C-24.66 24 -25.32 24 -26 24 C-26.33 24.99 -26.66 25.98 -27 27 C-27.99 27 -28.98 27 -30 27 C-30.33 26.01 -30.66 25.02 -31 24 C-30.04480469 23.38253906 -29.08960938 22.76507813 -28.10546875 22.12890625 C-17.97706658 15.51902635 -8.50491064 8.67137687 0 0 Z " fill="#9B7830" transform="translate(391,155)"/>
<path d="M0 0 C2.390625 -0.328125 2.390625 -0.328125 5.25 -0.25 C6.24644531 -0.22292969 7.24289062 -0.19585937 8.26953125 -0.16796875 C11.24172275 0.01486993 14.07151303 0.46211464 17 1 C20.99629709 1.38158192 24.99715265 1.69557633 29 2 C29 2.33 29 2.66 29 3 C21.08 3 13.16 3 5 3 C4.67 4.65 4.34 6.3 4 8 C3.04605164 10.02237052 2.05464649 12.0282696 1 14 C0.34 13.67 -0.32 13.34 -1 13 C-1.625 10.4375 -1.625 10.4375 -2 8 C-1.01 7.67 -0.02 7.34 1 7 C1 6.01 1 5.02 1 4 C0.01 3.67 -0.98 3.34 -2 3 C-1.34 2.01 -0.68 1.02 0 0 Z " fill="#BDAC82" transform="translate(266,232)"/>
<path d="M0 0 C3.07184758 3.70172169 5.06821752 7.84044699 7.1875 12.125 C7.55552734 12.85332031 7.92355469 13.58164063 8.30273438 14.33203125 C11 19.74657931 11 19.74657931 11 22 C10.01 22 9.02 22 8 22 C7.67 20.35 7.34 18.7 7 17 C5.02 17 3.04 17 1 17 C-1.125 11.375 -1.125 11.375 0 8 C-0.32205743 5.66508361 -0.65458149 3.33157492 -1 1 C-0.67 0.67 -0.34 0.34 0 0 Z " fill="#F6CC77" transform="translate(225,159)"/>
<path d="M0 0 C0.5775 0.165 1.155 0.33 1.75 0.5 C4.26664369 1.14462031 4.26664369 1.14462031 8 1 C8.25 6.625 8.25 6.625 6 10 C6.66 10 7.32 10 8 10 C7.67 11.32 7.34 12.64 7 14 C3.37 13.67 -0.26 13.34 -4 13 C-4 12.34 -4 11.68 -4 11 C-3.01 10.34 -2.02 9.68 -1 9 C-0.34 8.01 0.32 7.02 1 6 C0.67 6 0.34 6 0 6 C0 4.02 0 2.04 0 0 Z " fill="#E0CBA8" transform="translate(272,194)"/>
<path d="M0 0 C-1.98 0.99 -1.98 0.99 -4 2 C-2.68 2.66 -1.36 3.32 0 4 C0 4.66 0 5.32 0 6 C0.66 6.66 1.32 7.32 2 8 C1.21367187 7.86722656 0.42734375 7.73445312 -0.3828125 7.59765625 C-4.87674268 6.85513863 -9.37554206 6.14562252 -13.875 5.4375 C-14.75414062 5.29892578 -15.63328125 5.16035156 -16.5390625 5.01757812 C-18.69267134 4.67815064 -20.84633059 4.33904301 -23 4 C-22.67 3.34 -22.34 2.68 -22 2 C-14.75601341 0.2536818 -7.423581 -0.25164681 0 0 Z " fill="#D8BC76" transform="translate(172,175)"/>
<path d="M0 0 C5.52677733 -0.19392201 9.75614911 0.2520497 15 2 C14.01 3.485 14.01 3.485 13 5 C11.02 4.34 9.04 3.68 7 3 C7.33 3.99 7.66 4.98 8 6 C6.0085944 6.38133299 4.00720923 6.71325582 2 7 C1.67 6.67 1.34 6.34 1 6 C0.5875 6.804375 0.175 7.60875 -0.25 8.4375 C-2 11 -2 11 -4.1875 11.8125 C-4.785625 11.874375 -5.38375 11.93625 -6 12 C-6 11.34 -6 10.68 -6 10 C-5.34 9.67 -4.68 9.34 -4 9 C-2.87293294 6.88984046 -2.87293294 6.88984046 -1.875 4.4375 C-1.34519531 3.19806641 -1.34519531 3.19806641 -0.8046875 1.93359375 C-0.53914063 1.29550781 -0.27359375 0.65742188 0 0 Z " fill="#CABA96" transform="translate(264,217)"/>
<path d="M0 0 C6.93 0 13.86 0 21 0 C19.02 0.99 19.02 0.99 17 2 C17 2.66 17 3.32 17 4 C17.66 4.33 18.32 4.66 19 5 C17.35 5 15.7 5 14 5 C14 5.66 14 6.32 14 7 C16.64 7 19.28 7 22 7 C22 7.33 22 7.66 22 8 C12.43 8 2.86 8 -7 8 C-6.34 7.34 -5.68 6.68 -5 6 C-1.7421875 6.0234375 -1.7421875 6.0234375 2.125 6.375 C4.04699219 6.54128906 4.04699219 6.54128906 6.0078125 6.7109375 C7.48894531 6.85402344 7.48894531 6.85402344 9 7 C9.66 5.35 10.32 3.7 11 2 C7.37 1.67 3.74 1.34 0 1 C0 0.67 0 0.34 0 0 Z " fill="#110C0C" transform="translate(287,210)"/>
<path d="M0 0 C8.91 1.98 8.91 1.98 18 4 C17.34 5.32 16.68 6.64 16 8 C13.72942623 8.05398987 11.45848712 8.09278742 9.1875 8.125 C7.29064453 8.15980469 7.29064453 8.15980469 5.35546875 8.1953125 C2 8 2 8 -1 6 C-0.67 4.02 -0.34 2.04 0 0 Z " fill="#ECBB6F" transform="translate(168,192)"/>
<path d="M0 0 C1.01416992 0.07250977 1.01416992 0.07250977 2.04882812 0.14648438 C7.01051505 0.53650753 7.01051505 0.53650753 9.3125 1.6875 C8.9825 2.6775 8.6525 3.6675 8.3125 4.6875 C1.3825 4.6875 -5.5475 4.6875 -12.6875 4.6875 C-12.6875 3.6975 -12.6875 2.7075 -12.6875 1.6875 C-8.37547889 -0.48936172 -4.69049342 -0.42309979 0 0 Z " fill="#F4C57B" transform="translate(189.6875,266.3125)"/>
<path d="M0 0 C2.0625 0.4375 2.0625 0.4375 4 1 C4 1.66 4 2.32 4 3 C5.32 3.33 6.64 3.66 8 4 C8 4.66 8 5.32 8 6 C1.07 6 -5.86 6 -13 6 C-13 4.68 -13 3.36 -13 2 C-12.14535156 1.93941406 -11.29070312 1.87882812 -10.41015625 1.81640625 C-8.75306641 1.69072266 -8.75306641 1.69072266 -7.0625 1.5625 C-5.96035156 1.48128906 -4.85820312 1.40007812 -3.72265625 1.31640625 C-1.08890097 1.29581916 -1.08890097 1.29581916 0 0 Z " fill="#F4C770" transform="translate(154,265)"/>
<path d="M0 0 C1.98 0 3.96 0 6 0 C7 4.75 7 4.75 7 7 C7.99 7.33 8.98 7.66 10 8 C10 8.99 10 9.98 10 11 C5.92630576 13.03684712 3.41062136 13.0257259 -1 12 C-1 11.01 -1 10.02 -1 9 C0.32 9 1.64 9 3 9 C1.92598892 6.08482708 1.22189824 4.22189824 -1 2 C-0.67 1.34 -0.34 0.68 0 0 Z " fill="#C5B084" transform="translate(313,195)"/>
<path d="M0 0 C1.34362885 0.00031689 2.68728332 0.01162897 4.03076172 0.03173828 C4.73820526 0.03456818 5.4456488 0.03739807 6.17453003 0.04031372 C8.43667432 0.05151941 10.69842437 0.07662399 12.96044922 0.10205078 C14.49299559 0.11208011 16.02554816 0.12120604 17.55810547 0.12939453 C21.31737223 0.15145992 25.07634386 0.18599183 28.83544922 0.22705078 C28.83544922 0.55705078 28.83544922 0.88705078 28.83544922 1.22705078 C17.49239592 3.91906573 6.2054267 5.39702146 -5.16455078 2.22705078 C-3.16455078 0.22705078 -3.16455078 0.22705078 0 0 Z " fill="#FBE38B" transform="translate(99.16455078125,186.77294921875)"/>
<path d="M0 0 C0.33 0 0.66 0 1 0 C1.50704109 3.37398089 2.00436536 6.74932621 2.5 10.125 C2.64308594 11.07632813 2.78617187 12.02765625 2.93359375 13.0078125 C3.61961337 17.71194706 4.19271007 22.2304257 4 27 C3.01 27 2.02 27 1 27 C-1.76912574 18.34648207 -2.08640454 8.86304649 0 0 Z " fill="#A88946" transform="translate(332,93)"/>
<path d="M0 0 C11.385 0.99 11.385 0.99 23 2 C21 5 21 5 19.15234375 5.546875 C13.58650885 6.05732194 8.53680553 5.79097222 3 5 C3 4.34 3 3.68 3 3 C2.34 2.67 1.68 2.34 1 2 C0.67 1.34 0.34 0.68 0 0 Z " fill="#C0A168" transform="translate(277,218)"/>
<path d="M0 0 C0.33 0.66 0.66 1.32 1 2 C1.66 2 2.32 2 3 2 C3.625 4.375 3.625 4.375 4 7 C2.21600665 8.78399335 0.39597787 10.46200246 -1.5 12.125 C-2.1084375 12.66382813 -2.716875 13.20265625 -3.34375 13.7578125 C-5 15 -5 15 -7 15 C-5.45454854 9.52067211 -2.84456788 4.88570819 0 0 Z " fill="#D7D1C2" transform="translate(301,141)"/>
<path d="M0 0 C-0.639375 0.28875 -1.27875 0.5775 -1.9375 0.875 C-4.15206079 1.82823451 -4.15206079 1.82823451 -5 4 C-8.99144754 5.91896516 -12.59780431 7.33300065 -17 8 C-17.33 6.68 -17.66 5.36 -18 4 C-16.41800369 3.35089846 -14.83434276 2.70585306 -13.25 2.0625 C-12.36828125 1.70285156 -11.4865625 1.34320313 -10.578125 0.97265625 C-6.58962451 -0.53209621 -4.12612305 -1.32625384 0 0 Z " fill="#EACD80" transform="translate(73,193)"/>
<path d="M0 0 C0.33 0 0.66 0 1 0 C1.50612064 2.8740422 2.00506541 5.74902873 2.5 8.625 C2.64308594 9.43324219 2.78617187 10.24148437 2.93359375 11.07421875 C3.67876251 15.43877864 4.17272306 19.55238129 4 24 C3.34 24 2.68 24 2 24 C1.67 24.66 1.34 25.32 1 26 C-0.12048355 21.8883175 -0.37886916 17.80101779 -0.625 13.5625 C-0.6765625 12.81162109 -0.728125 12.06074219 -0.78125 11.28710938 C-1.01769263 7.33364946 -1.03119656 3.87083486 0 0 Z " fill="#A9853B" transform="translate(337,130)"/>
<path d="M0 0 C1.32 0 2.64 0 4 0 C7 6.5 7 6.5 7 11 C4 10 4 10 2 8 C2 8.99 2 9.98 2 11 C1.34 11 0.68 11 0 11 C-1.76062164 7.67438135 -2.10784228 6.40826005 -1.125 2.6875 C-0.568125 1.3571875 -0.568125 1.3571875 0 0 Z " fill="#F7E18D" transform="translate(202,117)"/>
<path d="M0 0 C-2.93514059 2.50030495 -5.14697777 3.61469778 -9 4 C-9.9590625 3.7525 -9.9590625 3.7525 -10.9375 3.5 C-13.79617948 2.80698679 -16.15109983 3.41727042 -19 4 C-19 2.68 -19 1.36 -19 0 C-12.60624381 -1.59843905 -6.40654045 -1.28130809 0 0 Z " fill="#F4D27C" transform="translate(142,188)"/>
<path d="M0 0 C2.33285378 2.13900633 3.7868759 4.16655353 5.1875 7 C5.53167969 7.680625 5.87585938 8.36125 6.23046875 9.0625 C7 11 7 11 7 14 C6.01 13.67 5.02 13.34 4 13 C3.67 12.34 3.34 11.68 3 11 C2.67 12.32 2.34 13.64 2 15 C1.34 15 0.68 15 0 15 C-1.23615622 9.90085558 -1.67479795 5.02439385 0 0 Z " fill="#2A241A" transform="translate(191,154)"/>
<path d="M0 0 C4.21878192 -0.19622241 7.17010894 0.19769832 11 2 C11 2.66 11 3.32 11 4 C11.66 4 12.32 4 13 4 C12.67 4.99 12.34 5.98 12 7 C7.6822542 6.49202991 3.96697886 5.80317221 0 4 C0 2.68 0 1.36 0 0 Z " fill="#E8CEA5" transform="translate(200,201)"/>
<path d="M0 0 C-0.4921875 2.38671875 -0.4921875 2.38671875 -2 5 C-4.83534981 5.87817917 -7.22363595 6.41913717 -10.125 6.8125 C-10.87910156 6.93302734 -11.63320313 7.05355469 -12.41015625 7.17773438 C-14.27034685 7.47206833 -16.13488048 7.73871332 -18 8 C-15.42639878 5.0332097 -12.48295779 3.50855222 -9 1.75 C-7.948125 1.20859375 -6.89625 0.6671875 -5.8125 0.109375 C-3 -1 -3 -1 0 0 Z " fill="#CAB171" transform="translate(43,203)"/>
<path d="M0 0 C0.33 1.32 0.66 2.64 1 4 C1.66 3.67 2.32 3.34 3 3 C2.75 4.875 2.75 4.875 2 7 C0.67532254 7.6837045 -0.65863633 8.34964186 -2 9 C-3.04974648 10.83819689 -3.04974648 10.83819689 -4 13 C-6 17 -6 17 -8 21 C-8.66 21 -9.32 21 -10 21 C-8.51991304 15.99886406 -6.3681664 11.67084403 -3.875 7.125 C-3.50246094 6.43664062 -3.12992187 5.74828125 -2.74609375 5.0390625 C-1.83500474 3.35705202 -0.91809685 1.67819564 0 0 Z " fill="#BDAA7F" transform="translate(322,97)"/>
<path d="M0 0 C0.875 2.125 0.875 2.125 1 4 C-1.64 4.33 -4.28 4.66 -7 5 C-7 4.34 -7 3.68 -7 3 C-8.98 2.34 -10.96 1.68 -13 1 C-8.11199289 -2.25867141 -5.46490584 -2.55028939 0 0 Z " fill="#E6C591" transform="translate(271,201)"/>
<path d="M0 0 C0.66 0 1.32 0 2 0 C1.67 1.65 1.34 3.3 1 5 C0.01 5 -0.98 5 -2 5 C-1.67 6.65 -1.34 8.3 -1 10 C-1.99 10.495 -1.99 10.495 -3 11 C-2.67 11.66 -2.34 12.32 -2 13 C-3.65 14.32 -5.3 15.64 -7 17 C-6.67 15.68 -6.34 14.36 -6 13 C-6.99 12.67 -7.98 12.34 -9 12 C-8.401875 11.278125 -7.80375 10.55625 -7.1875 9.8125 C-5.2242398 7.28830832 -3.6304801 4.74217108 -2 2 C-1.34 1.34 -0.68 0.68 0 0 Z " fill="#241D16" transform="translate(389,179)"/>
<path d="M0 0 C2.97 0.495 2.97 0.495 6 1 C4.68 3.97 3.36 6.94 2 10 C1.01 9.67 0.02 9.34 -1 9 C-1.80967438 6.08517222 -2.21845993 4.53886783 -1.0625 1.6875 C-0.711875 1.130625 -0.36125 0.57375 0 0 Z " fill="#CFC2A9" transform="translate(259,248)"/>
<path d="M0 0 C0.33 0 0.66 0 1 0 C2.32791716 5.31166864 2.74706142 10.75881575 1 16 C0.34 16 -0.32 16 -1 16 C-3.15328004 11.69343993 -2.9883829 9.08928635 -1.625 4.625 C-1.10005689 3.07755901 -0.56377804 1.53371875 0 0 Z " fill="#1A1313" transform="translate(325,245)"/>
<path d="M0 0 C0.66 0.33 1.32 0.66 2 1 C2.484375 3.14453125 2.484375 3.14453125 2.75 5.8125 C2.84796875 6.68519531 2.9459375 7.55789062 3.046875 8.45703125 C2.99616561 11.20801558 2.41135409 12.67126574 1 15 C0 14 0 14 -0.0625 11.4375 C-0.041875 10.633125 -0.02125 9.82875 0 9 C-0.66 9 -1.32 9 -2 9 C-2.20140476 5.37471432 -1.85776765 3.13498292 0 0 Z " fill="#211A18" transform="translate(172,151)"/>
<path d="M0 0 C0.99 0.33 1.98 0.66 3 1 C2.67 5.95 2.34 10.9 2 16 C1.34 14.68 0.68 13.36 0 12 C-0.33 11.67 -0.66 11.34 -1 11 C-1.09823937 9.33570949 -1.12973631 7.66718069 -1.125 6 C-1.12757813 5.0925 -1.13015625 4.185 -1.1328125 3.25 C-1 1 -1 1 0 0 Z " fill="#DFB061" transform="translate(177,236)"/>
<path d="M0 0 C0.66 0.33 1.32 0.66 2 1 C1.67 1.66 1.34 2.32 1 3 C2.98 3.66 4.96 4.32 7 5 C4.94709452 6.02645274 2.90024097 7.04560413 0.8125 8 C-1.17201523 8.87144569 -1.17201523 8.87144569 -2 11 C-2 10.01 -2 9.02 -2 8 C-2.99 7.67 -3.98 7.34 -5 7 C-4.01 6.01 -3.02 5.02 -2 4 C-2.33 3.01 -2.66 2.02 -3 1 C-2.01 0.67 -1.02 0.34 0 0 Z " fill="#ECBC60" transform="translate(242,186)"/>
<path d="M0 0 C0.33 0.66 0.66 1.32 1 2 C1.66 2 2.32 2 3 2 C2.67 3.65 2.34 5.3 2 7 C-0.31 6.67 -2.62 6.34 -5 6 C-4.67 4.35 -4.34 2.7 -4 1 C-2.68 0.67 -1.36 0.34 0 0 Z " fill="#EBC487" transform="translate(194,208)"/>
<path d="M0 0 C2.12534659 0.14069196 4.25027529 0.28770921 6.375 0.4375 C8.15003906 0.55931641 8.15003906 0.55931641 9.9609375 0.68359375 C13 1 13 1 15 2 C14.67 2.99 14.34 3.98 14 5 C12.7934375 4.7525 12.7934375 4.7525 11.5625 4.5 C9.2715557 3.96808161 9.2715557 3.96808161 8 4 C5.33333333 4 2.66666667 4 0 4 C0 2.68 0 1.36 0 0 Z " fill="#E6BB76" transform="translate(184,266)"/>
<path d="M0 0 C1.875 0.625 1.875 0.625 4 2 C4.71706982 3.98248715 5.38290413 5.98415349 6 8 C6.53625 8.53625 7.0725 9.0725 7.625 9.625 C8.07875 10.07875 8.5325 10.5325 9 11 C9 12.32 9 13.64 9 15 C5.14134031 13.54063512 3.99679238 11.73399879 2.25 8.0625 C1.82203125 7.18722656 1.3940625 6.31195313 0.953125 5.41015625 C0 3 0 3 0 0 Z " fill="#DFDDDA" transform="translate(234,239)"/>
<path d="M0 0 C1.22793367 3.9843442 0.38646591 6.08527272 -1 10 C-1 11.32 -1 12.64 -1 14 C-2.98 14.66 -4.96 15.32 -7 16 C-5.35433477 10.31497465 -2.70967216 5.23318364 0 0 Z " fill="#D8D0C4" transform="translate(288,167)"/>
<path d="M0 0 C0.5775 0.165 1.155 0.33 1.75 0.5 C4.26664369 1.14462031 4.26664369 1.14462031 8 1 C8.36923077 6.53846154 8.36923077 6.53846154 6.5 8.875 C5.7575 9.431875 5.7575 9.431875 5 10 C5 9.01 5 8.02 5 7 C3.35 6.67 1.7 6.34 0 6 C0 4.02 0 2.04 0 0 Z " fill="#E9D5B4" transform="translate(272,194)"/>
<path d="M0 0 C3.05001831 3.66002197 7 9.07851471 7 14 C6.01 14 5.02 14 4 14 C3.67 12.35 3.34 10.7 3 9 C2.01 9 1.02 9 0 9 C0 6.03 0 3.06 0 0 Z " fill="#E1BC6C" transform="translate(229,167)"/>
<path d="M0 0 C0.99 0.33 1.98 0.66 3 1 C3.67939174 2.99571323 4.34561559 4.99594773 5 7 C5.99 7.66 6.98 8.32 8 9 C8.33 8.67 8.66 8.34 9 8 C9.66 8 10.32 8 11 8 C10 11 10 11 7.9375 12.1875 C7.298125 12.455625 6.65875 12.72375 6 13 C4.99491199 11.21118264 3.99607264 9.41885304 3 7.625 C2.1646875 6.12839844 2.1646875 6.12839844 1.3125 4.6015625 C0 2 0 2 0 0 Z " fill="#E2DCD0" transform="translate(226,224)"/>
<path d="M0 0 C0.99 0.66 1.98 1.32 3 2 C3.40843923 4.71203652 3.13336867 7.2437142 3 10 C2.34 10 1.68 10 1 10 C0.67 10.99 0.34 11.98 0 13 C-0.66 13 -1.32 13 -2 13 C-1.34 8.71 -0.68 4.42 0 0 Z " fill="#DEB263" transform="translate(161,246)"/>
<path d="M0 0 C0.99 0 1.98 0 3 0 C3.6875 1.8125 3.6875 1.8125 4 4 C2.625 5.5625 2.625 5.5625 1 7 C0.67 7.99 0.34 8.98 0 10 C-0.99 10 -1.98 10 -3 10 C-2.49287967 6.28111761 -1.88391785 3.26545761 0 0 Z " fill="#E3D5BC" transform="translate(280,184)"/>
<path d="M0 0 C0.33 0 0.66 0 1 0 C1.99 3.96 2.98 7.92 4 12 C1.37886292 12 -0.50935112 11.68707555 -3 11 C-2.67 9.35 -2.34 7.7 -2 6 C-1.67 6 -1.34 6 -1 6 C-0.67 4.02 -0.34 2.04 0 0 Z " fill="#967530" transform="translate(355,248)"/>
<path d="M0 0 C1.77305664 0.25587405 3.54344608 0.53027739 5.3125 0.8125 C6.79169922 1.03873047 6.79169922 1.03873047 8.30078125 1.26953125 C11.12699269 2.03436705 12.1959128 2.75258762 14 5 C13.01 5 12.02 5 11 5 C10.236875 5.04125 9.47375 5.0825 8.6875 5.125 C5.5173718 4.97755218 2.96180407 4.10206663 0 3 C0 2.01 0 1.02 0 0 Z " fill="#241B17" transform="translate(195,216)"/>
<path d="M0 0 C0 0.33 0 0.66 0 1 C-1.24716797 1.19916016 -1.24716797 1.19916016 -2.51953125 1.40234375 C-3.60621094 1.57894531 -4.69289062 1.75554687 -5.8125 1.9375 C-6.89144531 2.11152344 -7.97039062 2.28554687 -9.08203125 2.46484375 C-12.04933356 2.93871921 -12.04933356 2.93871921 -15 4 C-16.39439664 4.06665376 -17.79169875 4.08538199 -19.1875 4.0625 C-21.0746875 4.0315625 -21.0746875 4.0315625 -23 4 C-22.67 3.34 -22.34 2.68 -22 2 C-14.75601341 0.2536818 -7.423581 -0.25164681 0 0 Z " fill="#B09B63" transform="translate(172,175)"/>
<path d="M0 0 C0.33 0 0.66 0 1 0 C1 1.65 1 3.3 1 5 C1.66 3.35 2.32 1.7 3 0 C3.99 0 4.98 0 6 0 C6 0.99 6 1.98 6 3 C6.66 3.33 7.32 3.66 8 4 C7.67 5.32 7.34 6.64 7 8 C4.69 7.34 2.38 6.68 0 6 C0 4.02 0 2.04 0 0 Z " fill="#150E10" transform="translate(190,164)"/>
<path d="M0 0 C1.65 0 3.3 0 5 0 C4.071875 0.804375 4.071875 0.804375 3.125 1.625 C0.79004387 3.89648947 0.79004387 3.89648947 0.0625 7.125 C-1 10 -1 10 -3.625 11.375 C-4.40875 11.58125 -5.1925 11.7875 -6 12 C-6 11.34 -6 10.68 -6 10 C-5.34 9.67 -4.68 9.34 -4 9 C-2.87293294 6.88984046 -2.87293294 6.88984046 -1.875 4.4375 C-1.34519531 3.19806641 -1.34519531 3.19806641 -0.8046875 1.93359375 C-0.53914063 1.29550781 -0.27359375 0.65742188 0 0 Z " fill="#C1B49B" transform="translate(264,217)"/>
<path d="M0 0 C1.65 0 3.3 0 5 0 C5.6875 2.3125 5.6875 2.3125 6 5 C4.5625 6.8125 4.5625 6.8125 3 8 C0.4345406 5.4345406 0.45953913 3.52313332 0 0 Z " fill="#F7DE8D" transform="translate(194,104)"/>
<path d="M0 0 C3.3 0 6.6 0 10 0 C10.33 0.99 10.66 1.98 11 3 C7.37 3.33 3.74 3.66 0 4 C0 2.68 0 1.36 0 0 Z " fill="#D9B667" transform="translate(141,267)"/>
<path d="M0 0 C2.3828125 0.2421875 2.3828125 0.2421875 5.125 0.875 C6.03507813 1.07867187 6.94515625 1.28234375 7.8828125 1.4921875 C8.58148438 1.65976563 9.28015625 1.82734375 10 2 C9.01 2.495 9.01 2.495 8 3 C8 3.66 8 4.32 8 5 C6.02 5 4.04 5 2 5 C2 4.34 2 3.68 2 3 C0.68 2.67 -0.64 2.34 -2 2 C-1.34 1.34 -0.68 0.68 0 0 Z " fill="#160F0E" transform="translate(243,201)"/>
<path d="M0 0 C10.55808656 1.74259681 10.55808656 1.74259681 15 5 C12.24019971 6.37990015 10.52263468 5.80964386 7.5 5.3125 C6.03046875 5.09013672 6.03046875 5.09013672 4.53125 4.86328125 C2 4 2 4 0.65625 1.91796875 C0.4396875 1.28503906 0.223125 0.65210938 0 0 Z " fill="#E0B464" transform="translate(152,203)"/>
<path d="M0 0 C1.48206495 0.254496 2.96068615 0.52911762 4.4375 0.8125 C5.67306641 1.03873047 5.67306641 1.03873047 6.93359375 1.26953125 C7.61550781 1.51058594 8.29742187 1.75164062 9 2 C9.33 2.99 9.66 3.98 10 5 C6.7 5 3.4 5 0 5 C-0.33 4.34 -0.66 3.68 -1 3 C-0.67 2.01 -0.34 1.02 0 0 Z " fill="#E4B25D" transform="translate(168,192)"/>
<path d="M0 0 C0 3.66012671 -0.69189012 4.14932109 -3.1875 6.6875 C-6.54062764 9.93158284 -6.54062764 9.93158284 -9.9375 10.4375 C-10.9584375 10.2209375 -10.9584375 10.2209375 -12 10 C-8.29909479 6.0747975 -4.45040344 3.05419844 0 0 Z " fill="#93702D" transform="translate(384,184)"/>
<path d="M0 0 C2.97 0.33 5.94 0.66 9 1 C9 1.99 9 2.98 9 4 C9.66 4.33 10.32 4.66 11 5 C2.42857143 4.14285714 2.42857143 4.14285714 -1 2 C-0.67 1.34 -0.34 0.68 0 0 Z " fill="#F1CC76" transform="translate(223,192)"/>
<path d="M0 0 C0.66 0.99 1.32 1.98 2 3 C-2.84492197 4.51403812 -6.2591011 3.36602172 -11 2 C-7.17723383 -0.54851078 -4.4246654 -1.76986616 0 0 Z " fill="#291F19" transform="translate(192,194)"/>
<path d="M0 0 C0.33 0.99 0.66 1.98 1 3 C0.67 3.66 0.34 4.32 0 5 C1.32 5 2.64 5 4 5 C4 6.32 4 7.64 4 9 C3.38125 8.814375 2.7625 8.62875 2.125 8.4375 C-0.04160178 7.76313824 -0.04160178 7.76313824 -2 9 C-2.6875 6.1875 -2.6875 6.1875 -3 3 C-1.5625 1.125 -1.5625 1.125 0 0 Z " fill="#E5E2DE" transform="translate(291,191)"/>
<path d="M0 0 C0.66 1.32 1.32 2.64 2 4 C1.195625 4.268125 0.39125 4.53625 -0.4375 4.8125 C-1.283125 5.204375 -2.12875 5.59625 -3 6 C-3.33 6.99 -3.66 7.98 -4 9 C-5.98 9.33 -7.96 9.66 -10 10 C-6.66666667 6.66666667 -3.33333333 3.33333333 0 0 Z " fill="#221710" transform="translate(370,200)"/>
<path d="M0 0 C2.35333796 4.70667591 2.17102038 6.8693886 2 12 C1.01 12.33 0.02 12.66 -1 13 C-1.33 13.99 -1.66 14.98 -2 16 C-1.34 10.72 -0.68 5.44 0 0 Z " fill="#CEB971" transform="translate(177,140)"/>
<path d="M0 0 C-0.91513319 2.28783297 -1.65484646 3.73449728 -3.625 5.25 C-7.13853155 6.35953628 -10.32299618 6.12256679 -14 6 C-11.74402173 3.74402173 -9.95396133 3.03425808 -7 1.875 C-6.113125 1.52179688 -5.22625 1.16859375 -4.3125 0.8046875 C-2 0 -2 0 0 0 Z " fill="#967735" transform="translate(350,207)"/>
<path d="M0 0 C5.61 0 11.22 0 17 0 C17 0.33 17 0.66 17 1 C15.02 1 13.04 1 11 1 C10.67 1.99 10.34 2.98 10 4 C9.34 4 8.68 4 8 4 C7.67 4.66 7.34 5.32 7 6 C7 4.35 7 2.7 7 1 C4.69 1 2.38 1 0 1 C0 0.67 0 0.34 0 0 Z " fill="#D6CBB4" transform="translate(297,196)"/>
<path d="M0 0 C5.28 0.33 10.56 0.66 16 1 C10.95238095 3.52380952 10.95238095 3.52380952 8 4 C7.01 3.67 6.02 3.34 5 3 C5 2.34 5 1.68 5 1 C3.35 1 1.7 1 0 1 C0 0.67 0 0.34 0 0 Z " fill="#261F19" transform="translate(64,203)"/>
<path d="M0 0 C0.99 0.33 1.98 0.66 3 1 C3.05399736 2.45792884 3.09279177 3.91642712 3.125 5.375 C3.14820313 6.18710938 3.17140625 6.99921875 3.1953125 7.8359375 C3 10 3 10 1 12 C-0.3271261 8.0186217 -0.06915913 4.14954773 0 0 Z " fill="#C7B282" transform="translate(317,176)"/>
<path d="M0 0 C2.83960774 0.067118 5.41016905 0.28255635 8.125 1.1875 C8.125 1.8475 8.125 2.5075 8.125 3.1875 C1.195 2.6925 1.195 2.6925 -5.875 2.1875 C-3.875 0.1875 -3.875 0.1875 0 0 Z " fill="#EBD887" transform="translate(99.875,186.8125)"/>
<path d="M0 0 C2.13253755 2.59613267 3.55075623 4.63067173 4 8 C3.67 8.66 3.34 9.32 3 10 C2.34 10 1.68 10 1 10 C-0.83691257 6.21812119 -1.15837626 4.05431692 0 0 Z " fill="#EDC972" transform="translate(225,159)"/>
<path d="M0 0 C0.66 0.33 1.32 0.66 2 1 C0.35 4.63 -1.3 8.26 -3 12 C-4.35015859 7.94952424 -3.62084998 5.2079832 -3 1 C-2.01 0.67 -1.02 0.34 0 0 Z " fill="#211C18" transform="translate(301,136)"/>
<path d="M0 0 C-0.639375 0.28875 -1.27875 0.5775 -1.9375 0.875 C-4.15206079 1.82823451 -4.15206079 1.82823451 -5 4 C-7.0625 4.625 -7.0625 4.625 -9 5 C-9 4.01 -9 3.02 -9 2 C-9.66 1.67 -10.32 1.34 -11 1 C-3.57142857 -1.42857143 -3.57142857 -1.42857143 0 0 Z " fill="#DCC37C" transform="translate(73,193)"/>
<path d="M0 0 C0.33 0 0.66 0 1 0 C1.16874707 1.91648462 1.33491643 3.83319633 1.5 5.75 C1.5928125 6.81734375 1.685625 7.8846875 1.78125 8.984375 C1.95052283 11.3179218 2 13.66032182 2 16 C1.01 16 0.02 16 -1 16 C-0.67 10.72 -0.34 5.44 0 0 Z " fill="#F1BB68" transform="translate(166,240)"/>
<path d="M0 0 C0.99 0 1.98 0 3 0 C3.33 3.96 3.66 7.92 4 12 C3.01 12.495 3.01 12.495 2 13 C0.71428571 4.42857143 0.71428571 4.42857143 2 1 C1.34 0.67 0.68 0.34 0 0 Z " fill="#281D16" transform="translate(321,230)"/>
<path d="M0 0 C3.63 0.33 7.26 0.66 11 1 C9 4 9 4 5.875 4.6875 C4.92625 4.790625 3.9775 4.89375 3 5 C3 4.34 3 3.68 3 3 C2.34 2.67 1.68 2.34 1 2 C0.67 1.34 0.34 0.68 0 0 Z " fill="#C1AB77" transform="translate(277,218)"/>
<path d="M0 0 C1.45742463 -0.08096803 2.91612807 -0.13917774 4.375 -0.1875 C5.18710938 -0.22230469 5.99921875 -0.25710937 6.8359375 -0.29296875 C7.55007812 -0.19628906 8.26421875 -0.09960938 9 0 C9.66 0.99 10.32 1.98 11 3 C6.97215907 4.15081169 4.71901707 3.96281457 1 2 C0.67 1.34 0.34 0.68 0 0 Z " fill="#271E19" transform="translate(245,185)"/>
<path d="M0 0 C12.66970387 -0.3690205 12.66970387 -0.3690205 18 2 C18 2.33 18 2.66 18 3 C15.36 3 12.72 3 10 3 C10 2.34 10 1.68 10 1 C6.7 1 3.4 1 0 1 C0 0.67 0 0.34 0 0 Z " fill="#30271E" transform="translate(74,202)"/>
<path d="M0 0 C0 0.66 0 1.32 0 2 C-1.258125 2.04125 -2.51625 2.0825 -3.8125 2.125 C-4.52019531 2.14820313 -5.22789062 2.17140625 -5.95703125 2.1953125 C-8 2 -8 2 -11 0 C-7.07632508 -2.82504594 -4.32061114 -1.49559616 0 0 Z " fill="#EFB861" transform="translate(178,198)"/>
<path d="M0 0 C0 3 0 3 -1.96875 5.26171875 C-2.8040625 6.06222656 -3.639375 6.86273438 -4.5 7.6875 C-5.3353125 8.49574219 -6.170625 9.30398437 -7.03125 10.13671875 C-7.6809375 10.75160156 -8.330625 11.36648437 -9 12 C-9.66 11.34 -10.32 10.68 -11 10 C-9.93458984 9.04287109 -9.93458984 9.04287109 -8.84765625 8.06640625 C-7.46900391 6.82697266 -7.46900391 6.82697266 -6.0625 5.5625 C-4.68771484 4.32693359 -4.68771484 4.32693359 -3.28515625 3.06640625 C-1.61665644 1.56046061 -1.61665644 1.56046061 0 0 Z " fill="#785F2C" transform="translate(391,155)"/>
<path d="M0 0 C1.98983228 3.97966457 2.22400716 4.67675132 1.625 8.75 C1.51414063 9.54921875 1.40328125 10.3484375 1.2890625 11.171875 C1.19367188 11.77515625 1.09828125 12.3784375 1 13 C0.34 13 -0.32 13 -1 13 C-0.67 8.71 -0.34 4.42 0 0 Z " fill="#D8AB62" transform="translate(163,232)"/>
<path d="M0 0 C2.3828125 0.0234375 2.3828125 0.0234375 5.125 0.375 C6.03507813 0.48585937 6.94515625 0.59671875 7.8828125 0.7109375 C8.93082031 0.85402344 8.93082031 0.85402344 10 1 C10 1.66 10 2.32 10 3 C5.48281619 4.36884358 2.41225737 3.47075246 -2 2 C-1.34 1.34 -0.68 0.68 0 0 Z " fill="#D6C7AF" transform="translate(214,219)"/>
<path d="M0 0 C2.31 0 4.62 0 7 0 C7 1.32 7 2.64 7 4 C4.69 3.67 2.38 3.34 0 3 C0 2.01 0 1.02 0 0 Z " fill="#8B682B" transform="translate(376,267)"/>
<path d="M0 0 C0.33 0 0.66 0 1 0 C1.125 7.625 1.125 7.625 0 11 C-0.66 11 -1.32 11 -2 11 C-2.66 9.02 -3.32 7.04 -4 5 C-2.68 5.33 -1.36 5.66 0 6 C0 4.02 0 2.04 0 0 Z " fill="#271B15" transform="translate(326,250)"/>
<path d="M0 0 C-2 3 -2 3 -4.3125 3.8125 C-7.4221566 4.02945279 -9.2229192 3.34886782 -12 2 C-12 1.67 -12 1.34 -12 1 C-7.93631321 0.22596442 -4.13574827 -0.0984702 0 0 Z " fill="#BC9B5A" transform="translate(300,220)"/>
<path d="M0 0 C0.33 3.63 0.66 7.26 1 11 C1.99 11.33 2.98 11.66 4 12 C2.68 12 1.36 12 0 12 C-0.33 9.36 -0.66 6.72 -1 4 C-1.66 4 -2.32 4 -3 4 C-3 3.01 -3 2.02 -3 1 C-1 0 -1 0 0 0 Z " fill="#CAB572" transform="translate(188,164)"/>
<path d="M0 0 C0.33 0.99 0.66 1.98 1 3 C1.66 3 2.32 3 3 3 C3.33 3.99 3.66 4.98 4 6 C3.34 6 2.68 6 2 6 C2 7.32 2 8.64 2 10 C1.34 10 0.68 10 0 10 C0 6.7 0 3.4 0 0 Z " fill="#E6B662" transform="translate(164,226)"/>
<path d="M0 0 C0.66 0.33 1.32 0.66 2 1 C1.67 3.97 1.34 6.94 1 10 C-1.29404844 6.55892734 -1.26293056 5.03160191 -1 1 C-0.67 0.67 -0.34 0.34 0 0 Z " fill="#E4B35D" transform="translate(166,218)"/>
<path d="M0 0 C0.33 0 0.66 0 1 0 C1.33 2.97 1.66 5.94 2 9 C1.34 9 0.68 9 0 9 C-1.125 6.1875 -1.125 6.1875 -2 3 C-1.34 2.01 -0.68 1.02 0 0 Z " fill="#261F19" transform="translate(312,151)"/>
<path d="M0 0 C3 3 3 3 3.1875 6.1875 C3.0946875 7.5796875 3.0946875 7.5796875 3 9 C2.01 9 1.02 9 0 9 C0 6.03 0 3.06 0 0 Z " fill="#1A110D" transform="translate(191,154)"/>
<path d="M0 0 C1.32 0 2.64 0 4 0 C3.34 3.3 2.68 6.6 2 10 C-1 6 -1 6 -0.6875 2.75 C-0.460625 1.8425 -0.23375 0.935 0 0 Z " fill="#C1B18F" transform="translate(312,146)"/>
<path d="M0 0 C1.0625 1.875 1.0625 1.875 2 4 C1.67 4.66 1.34 5.32 1 6 C1.66 6.33 2.32 6.66 3 7 C2.34 7 1.68 7 1 7 C0.67 7.66 0.34 8.32 0 9 C0 8.34 0 7.68 0 7 C-0.99 6.67 -1.98 6.34 -3 6 C-2.01 4.02 -1.02 2.04 0 0 Z " fill="#DDB362" transform="translate(158,259)"/>
<path d="M0 0 C1.43836751 0.11458693 2.87570966 0.24209116 4.3125 0.375 C5.51326172 0.47941406 5.51326172 0.47941406 6.73828125 0.5859375 C9 1 9 1 12 3 C10.35 3.33 8.7 3.66 7 4 C7 3.34 7 2.68 7 2 C6.401875 2.226875 5.80375 2.45375 5.1875 2.6875 C4.465625 2.790625 3.74375 2.89375 3 3 C1.36328125 1.51953125 1.36328125 1.51953125 0 0 Z " fill="#E3DFD5" transform="translate(240,212)"/>
<path d="M0 0 C-0.33 0.99 -0.66 1.98 -1 3 C-2.98 3 -4.96 3 -7 3 C-7 2.34 -7 1.68 -7 1 C-3.375 -1.125 -3.375 -1.125 0 0 Z " fill="#D3B775" transform="translate(43,203)"/>
<path d="M0 0 C2.97 0.495 2.97 0.495 6 1 C3.61426621 2.89213369 1.92824652 4.02391783 -1 5 C-0.67 3.35 -0.34 1.7 0 0 Z " fill="#201713" transform="translate(28,204)"/>
<path d="M0 0 C0.66 0 1.32 0 2 0 C1.46930939 3.82097239 0.50298434 6.06171403 -2 9 C-2.25 3.375 -2.25 3.375 0 0 Z " fill="#211A16" transform="translate(278,183)"/>
<path d="M0 0 C2.64 0 5.28 0 8 0 C8 1.32 8 2.64 8 4 C6.68 4 5.36 4 4 4 C4 3.34 4 2.68 4 2 C2.68 1.34 1.36 0.68 0 0 Z " fill="#EACD80" transform="translate(168,177)"/>
<path d="M0 0 C0.33 0 0.66 0 1 0 C3.48063781 9.41002278 3.48063781 9.41002278 2 14 C0.09391902 10.78817851 -0.22266247 8.46117397 -0.125 4.75 C-0.09792969 3.41195312 -0.09792969 3.41195312 -0.0703125 2.046875 C-0.04710937 1.37140625 -0.02390625 0.6959375 0 0 Z " fill="#C8B58F" transform="translate(315,160)"/>
<path d="M0 0 C0.66 0 1.32 0 2 0 C2 2.31 2 4.62 2 7 C0.68 7.33 -0.64 7.66 -2 8 C-1.34 5.36 -0.68 2.72 0 0 Z " fill="#FCDE8F" transform="translate(197,152)"/>
<path d="M0 0 C0.33 0 0.66 0 1 0 C1.33 3.3 1.66 6.6 2 10 C2.99 10 3.98 10 5 10 C4.67 10.99 4.34 11.98 4 13 C2 11.5625 2 11.5625 0 9 C-0.35442445 5.97175582 -0.23347235 3.03514061 0 0 Z " fill="#3F2D17" transform="translate(178,252)"/>
<path d="M0 0 C2.3828125 0.0234375 2.3828125 0.0234375 5.125 0.375 C6.03507812 0.48585937 6.94515625 0.59671875 7.8828125 0.7109375 C8.93082031 0.85402344 8.93082031 0.85402344 10 1 C5.61991557 3.58464442 2.88874887 2.81479148 -2 2 C-1.34 1.34 -0.68 0.68 0 0 Z " fill="#D7B878" transform="translate(258,202)"/>
<path d="M0 0 C1.98 0 3.96 0 6 0 C5.01 0.495 5.01 0.495 4 1 C3.34786708 3.02463255 3.34786708 3.02463255 3 5 C2.01 4.67 1.02 4.34 0 4 C0 2.68 0 1.36 0 0 Z " fill="#DCC092" transform="translate(200,201)"/>
<path d="M0 0 C1.32 1.65 2.64 3.3 4 5 C3.34 5 2.68 5 2 5 C2 5.66 2 6.32 2 7 C1.01 7 0.02 7 -1 7 C-1.04254356 5.00045254 -1.04080783 2.99958364 -1 1 C-0.67 0.67 -0.34 0.34 0 0 Z " fill="#E3B969" transform="translate(236,181)"/>
<path d="M0 0 C-2.97 0.66 -5.94 1.32 -9 2 C-9 2.66 -9 3.32 -9 4 C-9.99 3.67 -10.98 3.34 -12 3 C-8.47259613 -1.27001521 -5.19075617 -1.29768904 0 0 Z " fill="#211A1B" transform="translate(156,180)"/>
<path d="M0 0 C1.625 1.6875 1.625 1.6875 3 4 C2.1875 6.75 2.1875 6.75 1 9 C-0.61949011 6.42786866 -1.04408751 5.32330841 -0.625 2.25 C-0.41875 1.5075 -0.2125 0.765 0 0 Z " fill="#FBDF8A" transform="translate(209,131)"/>
<path d="M0 0 C0.99 0.33 1.98 0.66 3 1 C3.33 0.67 3.66 0.34 4 0 C4.66 0 5.32 0 6 0 C5 3 5 3 2.9375 4.1875 C2.298125 4.455625 1.65875 4.72375 1 5 C0.67 3.35 0.34 1.7 0 0 Z " fill="#E5E3DC" transform="translate(231,232)"/>
<path d="M0 0 C1.32 1.32 2.64 2.64 4 4 C3 6 3 6 1 7 C1 6.01 1 5.02 1 4 C0.01 3.67 -0.98 3.34 -2 3 C-1.34 2.01 -0.68 1.02 0 0 Z " fill="#D0C19E" transform="translate(266,232)"/>
<path d="M0 0 C0.66 0.33 1.32 0.66 2 1 C1.67 2.65 1.34 4.3 1 6 C0.34 6 -0.32 6 -1 6 C-1.66 4.35 -2.32 2.7 -3 1 C-2.01 0.67 -1.02 0.34 0 0 Z " fill="#201B18" transform="translate(259,221)"/>
<path d="M0 0 C0.33 0.66 0.66 1.32 1 2 C1.66 2.33 2.32 2.66 3 3 C1.25 4.125 1.25 4.125 -1 5 C-3.25 4.125 -3.25 4.125 -5 3 C-5 2.34 -5 1.68 -5 1 C-3.35 0.67 -1.7 0.34 0 0 Z " fill="#D0BD9E" transform="translate(276,192)"/>
<path d="M0 0 C0.66 0 1.32 0 2 0 C2 0.66 2 1.32 2 2 C2.99 2.33 3.98 2.66 5 3 C4.67 4.65 4.34 6.3 4 8 C1.84622436 5.37801226 0.59927826 3.35595828 0 0 Z " fill="#E4D589" transform="translate(199,168)"/>
<path d="M0 0 C0.66 0.33 1.32 0.66 2 1 C1.34 3.97 0.68 6.94 0 10 C-0.33 10 -0.66 10 -1 10 C-1.02689216 8.52093108 -1.04634621 7.04172517 -1.0625 5.5625 C-1.07410156 4.73878906 -1.08570313 3.91507813 -1.09765625 3.06640625 C-1 1 -1 1 0 0 Z " fill="#CDBA91" transform="translate(315,148)"/>
<path d="M0 0 C2.31 0.33 4.62 0.66 7 1 C6.67 1.99 6.34 2.98 6 4 C4.35 3.67 2.7 3.34 1 3 C0.67 2.01 0.34 1.02 0 0 Z " fill="#C7AA7A" transform="translate(192,267)"/>
<path d="M0 0 C0.99 0.33 1.98 0.66 3 1 C3 1.99 3 2.98 3 4 C1 5.6875 1 5.6875 -1 7 C-2 4 -2 4 -1.0625 1.8125 C-0.5365625 0.9153125 -0.5365625 0.9153125 0 0 Z " fill="#211B19" transform="translate(264,250)"/>
<path d="M0 0 C0.66 0 1.32 0 2 0 C2.33 0.99 2.66 1.98 3 3 C1.68 4.32 0.36 5.64 -1 7 C-2 4 -2 4 -1.0625 1.8125 C-0.5365625 0.9153125 -0.5365625 0.9153125 0 0 Z " fill="#D5C9AF" transform="translate(259,248)"/>
<path d="M0 0 C-0.99 1.485 -0.99 1.485 -2 3 C-3.65 2.67 -5.3 2.34 -7 2 C-7 1.34 -7 0.68 -7 0 C-4.3333581 -1.33332095 -2.83319697 -0.67102033 0 0 Z " fill="#C8B386" transform="translate(279,219)"/>
<path d="M0 0 C-2.1385485 2.1385485 -3.13275314 2.42655063 -6 3 C-6.66 2.01 -7.32 1.02 -8 0 C-4.94736336 -0.98120464 -3.05263664 -0.98120464 0 0 Z " fill="#221816" transform="translate(40,209)"/>
<path d="M0 0 C0.66 0.66 1.32 1.32 2 2 C1.67 2.99 1.34 3.98 1 5 C0.34 5 -0.32 5 -1 5 C-1.33 5.66 -1.66 6.32 -2 7 C-2 6.34 -2 5.68 -2 5 C-2.66 4.67 -3.32 4.34 -4 4 C-2.68 2.68 -1.36 1.36 0 0 Z " fill="#231815" transform="translate(381,167)"/>
<path d="M0 0 C0.99 0 1.98 0 3 0 C3.33 0.99 3.66 1.98 4 3 C2.5625 5.1875 2.5625 5.1875 1 7 C0.31292445 4.50935112 0 2.62113708 0 0 Z " fill="#D7D1C5" transform="translate(297,172)"/>
</svg>
